<svg width="25" height="17" viewBox="0 0 25 17" fill="none" xmlns="http://www.w3.org/2000/svg">
<path id="Vector" d="M21.8081 0H3.80811C3.01272 0.000744481 2.25015 0.277545 1.68772 0.769667C1.1253 1.26179 0.808956 1.92904 0.808105 2.625V13.875C0.808956 14.571 1.1253 15.2382 1.68772 15.7303C2.25015 16.2225 3.01272 16.4993 3.80811 16.5H21.8081C22.6035 16.4993 23.3661 16.2225 23.9285 15.7303C24.4909 15.2382 24.8073 14.571 24.8081 13.875V2.625C24.8073 1.92904 24.4909 1.26179 23.9285 0.769667C23.3661 0.277545 22.6035 0.000744481 21.8081 0ZM21.0485 4.34203L13.3342 9.59203C13.1837 9.69436 12.9986 9.74991 12.8081 9.74991C12.6176 9.74991 12.4325 9.69436 12.282 9.59203L4.56775 4.34203C4.47711 4.28214 4.40098 4.20709 4.34379 4.12123C4.28659 4.03537 4.24946 3.94042 4.23456 3.8419C4.21966 3.74338 4.22729 3.64325 4.257 3.54733C4.28671 3.45142 4.33791 3.36162 4.40762 3.28316C4.47734 3.20471 4.56418 3.13916 4.66309 3.09032C4.76201 3.04149 4.87104 3.01034 4.98383 2.99869C5.09662 2.98704 5.21094 2.99513 5.32013 3.02247C5.42932 3.04981 5.53122 3.09587 5.61989 3.15797L12.8081 8.04984L19.9963 3.15797C20.1761 3.0392 20.402 2.98711 20.6253 3.01296C20.8486 3.03881 21.0513 3.14053 21.1895 3.29612C21.3278 3.45171 21.3905 3.64866 21.3641 3.84439C21.3377 4.04011 21.2243 4.21888 21.0485 4.34203Z" fill="white"/>
</svg>
