<svg width="51" height="51" viewBox="0 0 51 51" fill="none" xmlns="http://www.w3.org/2000/svg">
<path d="M0.438965 25.8906C0.438965 12.0835 11.6318 0.890625 25.439 0.890625C39.2461 0.890625 50.439 12.0835 50.439 25.8906C50.439 39.6977 39.2461 50.8906 25.439 50.8906C11.6318 50.8906 0.438965 39.6977 0.438965 25.8906Z" fill="#242424"/>
<g clip-path="url(#clip0_340_2111)">
<path d="M25.8083 16C19.1416 16 13.4483 20.1467 11.1416 26C13.4483 31.8533 19.1416 36 25.8083 36C32.4749 36 38.1683 31.8533 40.4749 26C38.1683 20.1467 32.4749 16 25.8083 16ZM25.8083 32.6667C22.1283 32.6667 19.1416 29.68 19.1416 26C19.1416 22.32 22.1283 19.3333 25.8083 19.3333C29.4883 19.3333 32.4749 22.32 32.4749 26C32.4749 29.68 29.4883 32.6667 25.8083 32.6667ZM25.8083 22C23.5949 22 21.8083 23.7867 21.8083 26C21.8083 28.2133 23.5949 30 25.8083 30C28.0216 30 29.8083 28.2133 29.8083 26C29.8083 23.7867 28.0216 22 25.8083 22Z" fill="white"/>
</g>
<defs>
<clipPath id="clip0_340_2111">
<rect width="32" height="32" fill="white" transform="translate(9.80811 10)"/>
</clipPath>
</defs>
</svg>
