<svg width="36" height="77" viewBox="0 0 36 77" fill="none" xmlns="http://www.w3.org/2000/svg">
<path d="M0.5 0C2.70764 3.32781 4.31174 6.83382 5.97614 10.4531C6.33182 11.2223 6.68751 11.9915 7.05397 12.784C8.22245 15.3143 9.38687 17.8464 10.5507 20.3789C10.9471 21.2397 11.3435 22.1006 11.752 22.9875C17.6136 35.7214 23.3844 48.4942 29.0557 61.3148C29.3861 62.0605 29.7164 62.8061 30.0567 63.5744C30.9805 65.6621 31.9015 67.751 32.821 69.8407C33.0951 70.4606 33.3691 71.0806 33.6514 71.7194C35.5 75.9385 35.5 75.9385 35.5 77C23.95 77 12.4 77 0.5 77C0.5 51.59 0.5 26.18 0.5 0Z" fill="#2B4EFF"/>
</svg>
