<svg width="740" height="268" viewBox="0 0 740 268" fill="none" xmlns="http://www.w3.org/2000/svg">
<g clip-path="url(#clip0_452_963)">
<mask id="mask0_452_963" style="mask-type:luminance" maskUnits="userSpaceOnUse" x="-410" y="0" width="1163" height="1037">
<path d="M753 0H-410V1037H753V0Z" fill="white"/>
</mask>
<g mask="url(#mask0_452_963)">
<path d="M340.921 0C342.21 0.615486 343.499 1.23097 344.827 1.86511C344.827 2.48059 344.827 3.09608 344.827 3.73022C345.472 3.73022 346.116 3.73022 346.78 3.73022C348.645 5.67182 348.645 5.67182 350.747 8.21813C351.443 9.0512 352.139 9.88427 352.856 10.7426C354.592 13.0558 354.592 13.0558 355.568 15.8534C356.475 16.2862 356.475 16.2862 357.399 16.7277C359.9 17.9219 360.934 19.2028 362.404 21.4487C362.404 22.0642 362.404 22.6797 362.404 23.3138C363.371 23.6216 364.337 23.9293 365.333 24.2464C366.516 25.6015 366.516 25.6015 367.653 27.2772C369.279 29.5725 370.757 31.2907 372.84 33.2805C374.909 35.2561 375.776 36.7316 377.051 39.1673C378.018 39.475 378.985 39.7828 379.981 40.0998C381.163 41.4549 381.163 41.4549 382.3 43.1306C384.506 46.2159 386.939 48.6709 389.746 51.2905C394.956 56.6197 399.881 62.1075 404.565 67.8652C406.33 70.0037 406.33 70.0037 408.524 71.9597C410.252 73.6718 410.252 73.6718 410.252 75.5369C411.219 75.8446 412.185 76.1524 413.181 76.4694C414.057 77.7389 414.057 77.7389 414.951 79.0339C416.892 81.7869 418.704 83.3913 421.409 85.4088C423.801 87.4609 425.533 89.921 427.402 92.4066C428.885 94.3753 428.885 94.3753 431.307 96.5776C433.698 98.8605 435.49 101.2 437.395 103.849C438.651 105.565 438.651 105.565 440.828 107.535C442.476 109.109 442.476 109.109 442.476 110.974C443.443 111.282 444.41 111.589 445.406 111.906C449.312 116.063 449.312 116.063 449.312 118.434C450.278 118.742 451.245 119.05 452.241 119.367C457.123 124.463 457.123 124.463 457.123 126.827C457.768 126.827 458.412 126.827 459.076 126.827C463.959 131.934 463.959 131.934 463.959 134.288C464.926 134.596 465.892 134.903 466.888 135.22C468.071 136.575 468.071 136.575 469.208 138.251C470.834 140.546 472.312 142.265 474.395 144.254C476.427 146.195 477.536 147.631 478.606 150.141C479.251 150.141 479.895 150.141 480.559 150.141C481.86 151.609 481.86 151.609 483.306 153.58C485.734 156.783 488.33 159.5 491.301 162.264C496.183 167.401 496.183 167.401 496.183 169.725C497.472 170.34 498.761 170.956 500.089 171.59C500.089 172.205 500.089 172.821 500.089 173.455C500.734 173.455 501.378 173.455 502.042 173.455C503.907 175.397 503.907 175.397 506.009 177.943C506.705 178.776 507.401 179.609 508.118 180.467C509.854 182.781 509.854 182.781 510.83 185.578C511.737 186.011 511.737 186.011 512.661 186.453C515.162 187.647 516.196 188.928 517.666 191.174C517.666 191.789 517.666 192.405 517.666 193.039C518.633 193.346 519.599 193.654 520.595 193.971C521.778 195.326 521.778 195.326 522.914 197.002C524.541 199.297 526.018 201.015 528.102 203.005C530.171 204.981 531.038 206.456 532.313 208.892C533.28 209.2 534.247 209.508 535.243 209.825C536.459 211.213 536.459 211.213 537.623 212.914C539.123 215.032 540.472 216.683 542.383 218.509C544.031 220.083 544.031 220.083 544.031 221.948C544.998 222.256 545.965 222.563 546.961 222.88C546.961 223.496 546.961 224.111 546.961 224.746C547.605 224.746 548.25 224.746 548.914 224.746C549.175 225.496 549.437 226.246 549.707 227.019C550.281 228.201 550.281 228.201 550.867 229.408C551.833 229.716 552.8 230.024 553.796 230.341C555.654 232.341 555.654 232.341 557.641 234.829C559.607 237.278 561.494 239.561 563.809 241.717C565.514 243.397 565.514 243.397 565.514 245.262C566.481 245.569 567.447 245.877 568.443 246.194C569.027 247.041 569.611 247.887 570.213 248.759C571.986 251.275 573.004 252.425 575.401 254.179C578.221 256.463 579.164 257.781 580.161 261.115C580.806 261.115 581.45 261.115 582.114 261.115C582.265 262.009 582.265 262.009 582.419 262.922C582.641 263.557 582.862 264.191 583.091 264.845C584.057 265.153 585.024 265.461 586.02 265.778C587.63 267.304 587.63 267.304 589.316 269.217C590.205 270.221 590.205 270.221 591.112 271.246C591.688 271.903 592.263 272.561 592.856 273.238C593.36 273.79 593.865 274.342 594.385 274.91C597.738 278.605 597.738 278.605 597.738 280.699C598.705 281.006 599.672 281.314 600.668 281.631C604.574 285.788 604.574 285.788 604.574 288.159C605.54 288.467 606.507 288.775 607.503 289.092C612.385 294.188 612.385 294.188 612.385 296.552C613.03 296.552 613.674 296.552 614.338 296.552C619.221 301.659 619.221 301.659 619.221 304.013C620.188 304.32 621.154 304.628 622.15 304.945C623.333 306.3 623.333 306.3 624.469 307.976C626.096 310.271 627.573 311.989 629.657 313.979C631.689 315.919 632.798 317.356 633.868 319.866C634.513 319.866 635.157 319.866 635.821 319.866C637.122 321.334 637.122 321.334 638.568 323.305C640.996 326.508 643.592 329.225 646.563 331.989C651.445 337.126 651.445 337.126 651.445 339.45C652.008 339.662 652.57 339.875 653.15 340.094C655.934 341.638 657.371 343.479 659.318 345.919C661.933 349.204 661.933 349.204 664.868 352.218C666.092 353.438 666.092 353.438 666.092 355.303C667.059 355.611 668.026 355.919 669.022 356.236C672.928 360.392 672.928 360.392 672.928 362.763C673.895 363.071 674.861 363.379 675.857 363.696C677.074 365.084 677.074 365.084 678.237 366.785C679.737 368.903 681.086 370.555 682.998 372.38C684.646 373.954 684.646 373.954 684.646 375.819C685.612 376.127 686.579 376.435 687.575 376.752C689.433 378.752 689.433 378.752 691.42 381.24C693.386 383.689 695.274 385.972 697.588 388.128C699.293 389.808 699.293 389.808 699.293 391.673C699.938 391.673 700.582 391.673 701.246 391.673C706.129 396.78 706.129 396.78 706.129 399.133C707.095 399.441 708.062 399.749 709.058 400.066C713.94 405.162 713.94 405.162 713.94 407.526C714.585 407.526 715.229 407.526 715.893 407.526C720.776 412.633 720.776 412.633 720.776 414.987C721.743 415.294 722.709 415.602 723.705 415.919C724.289 416.765 724.873 417.612 725.475 418.484C727.248 420.999 728.266 422.15 730.663 423.904C733.483 426.187 734.426 427.506 735.423 430.84C736.068 430.84 736.712 430.84 737.376 430.84C737.477 431.436 737.578 432.032 737.681 432.647C737.903 433.281 738.124 433.916 738.353 434.57C739.319 434.878 740.286 435.186 741.282 435.503C742.892 437.029 742.892 437.029 744.578 438.941C745.129 439.561 745.68 440.18 746.249 440.818C746.865 441.526 747.482 442.234 748.118 442.963C748.95 443.67 749.783 444.378 750.641 445.106C754.581 449.676 753.636 455.567 753.554 461.178C753.553 462.466 753.554 463.753 753.556 465.04C753.558 468.523 753.529 472.006 753.495 475.489C753.465 479.133 753.462 482.778 753.456 486.422C753.441 493.318 753.401 500.214 753.352 507.11C753.297 514.962 753.27 522.815 753.246 530.668C753.195 546.818 753.109 562.967 753 579.116C751.047 577.834 751.047 577.834 749.094 576.318C749.094 575.703 749.094 575.087 749.094 574.453C748.127 574.145 747.161 573.838 746.165 573.521C741.282 568.424 741.282 568.424 741.282 566.06C740.638 566.06 739.993 566.06 739.329 566.06C738.063 564.592 738.063 564.592 736.644 562.621C734.7 560.04 732.855 557.942 730.236 555.977C727.611 553.937 727.611 553.937 726.635 551.139C725.97 550.505 725.306 549.87 724.621 549.216C723.996 548.62 723.372 548.023 722.729 547.409C722.729 546.794 722.729 546.178 722.729 545.544C721.762 545.236 720.795 544.929 719.799 544.612C717.942 542.612 717.942 542.612 715.954 540.124C713.988 537.674 712.101 535.392 709.787 533.235C708.081 531.556 708.081 531.556 708.081 529.691C707.115 529.383 706.148 529.075 705.152 528.758C703.83 526.906 702.531 525.039 701.246 523.163C699.64 521.588 698.011 520.035 696.364 518.5C695.271 517.366 694.194 516.219 693.129 515.061C692.629 514.519 692.13 513.977 691.615 513.418C690.505 511.972 690.505 511.972 690.505 510.107C689.538 509.799 688.571 509.492 687.575 509.174C685.794 507.517 685.794 507.517 683.974 505.503C683.366 504.84 682.758 504.178 682.132 503.495C680.74 501.714 680.74 501.714 680.74 499.849C679.773 499.541 678.806 499.233 677.81 498.916C676.651 496.527 676.651 496.527 675.857 494.254C675.213 494.254 674.568 494.254 673.904 494.254C669.022 489.147 669.022 489.147 669.022 486.793C668.055 486.485 667.088 486.178 666.092 485.861C661.21 480.764 661.21 480.764 661.21 478.4C660.565 478.4 659.921 478.4 659.257 478.4C654.375 473.293 654.375 473.293 654.375 470.94C653.408 470.632 652.441 470.324 651.445 470.007C650.263 468.652 650.263 468.652 649.126 466.976C647.499 464.681 646.022 462.963 643.938 460.973C641.907 459.033 640.798 457.596 639.727 455.086C639.083 455.086 638.438 455.086 637.774 455.086C637.673 454.49 637.573 453.894 637.469 453.28C637.247 452.645 637.026 452.01 636.798 451.356C635.831 451.048 634.864 450.741 633.868 450.424C632.259 448.897 632.259 448.897 630.573 446.985C629.683 445.98 629.683 445.98 628.776 444.956C628.201 444.298 627.625 443.641 627.033 442.963C626.528 442.411 626.023 441.86 625.503 441.291C622.15 437.596 622.15 437.596 622.15 435.503C621.184 435.195 620.217 434.887 619.221 434.57C615.315 430.414 615.315 430.414 615.315 428.042C614.348 427.735 613.381 427.427 612.385 427.11C607.503 422.013 607.503 422.013 607.503 419.649C606.858 419.649 606.214 419.649 605.55 419.649C600.668 414.542 600.668 414.542 600.668 412.189C599.701 411.881 598.734 411.573 597.738 411.256C596.521 409.868 596.521 409.868 595.358 408.167C593.858 406.049 592.509 404.397 590.597 402.572C590.054 402.053 589.51 401.533 588.95 400.998C588.95 400.383 588.95 399.767 588.95 399.133C587.983 398.825 587.016 398.518 586.02 398.201C586.02 397.585 586.02 396.97 586.02 396.335C585.053 396.028 584.087 395.72 583.091 395.403C581.874 394.015 581.874 394.015 580.711 392.314C579.211 390.196 577.862 388.544 575.95 386.718C575.406 386.199 574.863 385.68 574.302 385.145C574.302 384.529 574.302 383.914 574.302 383.28C573.336 382.972 572.369 382.664 571.373 382.347C571.373 381.732 571.373 381.116 571.373 380.482C570.728 380.482 570.084 380.482 569.42 380.482C569.158 379.732 568.896 378.982 568.626 378.209C568.244 377.42 567.861 376.632 567.467 375.819C566.5 375.511 565.533 375.204 564.537 374.887C564.537 374.271 564.537 373.656 564.537 373.022C563.893 373.022 563.248 373.022 562.584 373.022C561.249 371.521 561.249 371.521 559.777 369.525C558.071 367.264 556.478 365.325 554.406 363.346C553.883 362.846 553.359 362.346 552.82 361.831C552.82 361.215 552.82 360.6 552.82 359.966C552.175 359.966 551.531 359.966 550.867 359.966C549.745 358.669 549.745 358.669 548.547 356.935C547.029 354.805 545.651 353.119 543.726 351.281C543.182 350.762 542.638 350.243 542.078 349.708C542.078 349.092 542.078 348.477 542.078 347.843C541.434 347.843 540.789 347.843 540.125 347.843C540.125 347.227 540.125 346.612 540.125 345.978C539.481 345.978 538.836 345.978 538.172 345.978C535.243 342.749 535.243 342.749 535.243 340.382C534.276 340.074 533.309 339.767 532.313 339.45C527.431 334.353 527.431 334.353 527.431 331.989C526.786 331.989 526.142 331.989 525.478 331.989C520.595 326.882 520.595 326.882 520.595 324.529C519.629 324.221 518.662 323.913 517.666 323.596C513.76 319.44 513.76 319.44 513.76 317.068C512.793 316.761 511.826 316.453 510.83 316.136C505.948 311.039 505.948 311.039 505.948 308.675C505.303 308.675 504.659 308.675 503.995 308.675C499.113 303.569 499.113 303.569 499.113 301.215C498.146 300.907 497.179 300.599 496.183 300.282C495.001 298.927 495.001 298.927 493.864 297.252C492.237 294.956 490.76 293.238 488.676 291.248C486.645 289.308 485.536 287.871 484.465 285.362C483.821 285.362 483.176 285.362 482.512 285.362C482.512 284.746 482.512 284.131 482.512 283.496C481.868 283.189 481.223 282.881 480.559 282.564C479.252 281.014 477.951 279.459 476.653 277.901C475.868 277.151 475.082 276.401 474.273 275.628C471.593 273.069 469.215 270.499 466.888 267.643C466.888 267.027 466.888 266.412 466.888 265.778C465.922 265.47 464.955 265.162 463.959 264.845C460.053 260.689 460.053 260.689 460.053 258.317C459.086 258.01 458.119 257.702 457.123 257.385C452.241 252.288 452.241 252.288 452.241 249.924C451.597 249.924 450.952 249.924 450.288 249.924C445.406 244.818 445.406 244.818 445.406 242.464C444.56 242.176 444.56 242.176 443.697 241.881C440.698 240.131 439.475 237.811 437.594 235.004C436.869 234.311 436.144 233.619 435.397 232.905C434.833 232.367 434.269 231.828 433.688 231.273C433.688 230.658 433.688 230.042 433.688 229.408C432.721 229.101 431.754 228.793 430.758 228.476C426.852 224.319 426.852 224.319 426.852 221.948C425.886 221.64 424.919 221.332 423.923 221.015C419.04 215.919 419.04 215.919 419.04 213.555C418.396 213.555 417.751 213.555 417.087 213.555C412.205 208.448 412.205 208.448 412.205 206.094C411.238 205.787 410.271 205.479 409.275 205.162C407.75 203.541 406.293 201.861 404.881 200.149C401.97 196.588 401.97 196.588 398.748 193.294C397.558 192.106 397.558 192.106 397.558 190.241C396.913 190.241 396.269 190.241 395.605 190.241C395.605 189.626 395.605 189.01 395.605 188.376C394.96 188.376 394.316 188.376 393.652 188.376C392.657 186.832 391.681 185.277 390.722 183.713C390.078 183.405 389.433 183.098 388.769 182.781C388.769 182.165 388.769 181.55 388.769 180.915C388.125 180.915 387.48 180.915 386.816 180.915C386.816 179.992 386.816 179.069 386.816 178.118C386.172 178.118 385.527 178.118 384.863 178.118C384.863 177.502 384.863 176.887 384.863 176.253C384.219 176.253 383.574 176.253 382.91 176.253C379.981 173.025 379.981 173.025 379.981 170.657C379.014 170.35 378.047 170.042 377.051 169.725C372.169 164.628 372.169 164.628 372.169 162.264C371.524 162.264 370.88 162.264 370.216 162.264C365.333 157.158 365.333 157.158 365.333 154.804C364.457 154.458 364.457 154.458 363.563 154.105C361.119 152.77 359.981 151.476 358.498 149.209C358.498 148.593 358.498 147.978 358.498 147.344C357.531 147.036 356.564 146.728 355.568 146.411C350.686 141.314 350.686 141.314 350.686 138.951C350.042 138.951 349.397 138.951 348.733 138.951C348.483 139.631 348.232 140.311 347.974 141.012C346.727 143.729 345.269 145.643 343.301 147.926C341.239 150.326 340.004 151.835 338.968 154.804C338.324 154.804 337.679 154.804 337.015 154.804C336.748 155.328 336.481 155.852 336.206 156.392C327.036 173.557 327.036 173.557 321.391 176.253C321.063 177.495 320.738 178.739 320.415 179.983C319.312 181.619 319.312 181.619 317.913 183.305C317.39 183.949 316.868 184.594 316.33 185.258C315.744 185.979 315.159 186.7 314.556 187.443C310.298 192.876 306.186 198.235 302.838 204.229C302.193 204.229 301.549 204.229 300.885 204.229C300.661 204.856 300.437 205.482 300.206 206.127C298.583 209.649 296.44 212.66 294.172 215.828C293.747 216.427 293.323 217.026 292.886 217.644C292.049 218.826 291.209 220.005 290.366 221.182C289.577 222.3 288.805 223.428 288.052 224.567C287.169 225.9 286.221 227.192 285.261 228.476C284.617 228.476 283.972 228.476 283.308 228.476C283.08 229.106 282.852 229.736 282.618 230.385C281.038 233.831 278.984 236.792 276.778 239.9C276.344 240.517 275.911 241.134 275.464 241.769C272.518 245.924 269.432 249.93 266.098 253.811C264.727 255.555 263.806 257.298 262.802 259.25C262.017 260.319 261.2 261.367 260.361 262.397C257.464 266.024 254.658 269.706 251.877 273.413C251.459 273.967 251.042 274.521 250.611 275.092C248.335 278.132 246.257 281.225 244.249 284.429C243.045 286.034 241.823 287.626 240.587 289.208C237.922 292.673 235.404 296.17 233.019 299.816C230.233 304.063 227.234 308.093 224.116 312.121C220.463 316.902 217.026 321.83 213.555 326.733C210.896 330.474 208.151 334.054 205.189 337.585C204.195 339.129 203.218 340.683 202.259 342.247C198.13 348.098 193.755 353.785 189.367 359.459C187.598 361.786 187.598 361.786 186.147 364.166C184.58 366.657 182.841 368.944 181.021 371.273C178.356 374.738 175.838 378.235 173.453 381.881C170.667 386.128 167.668 390.157 164.55 394.186C160.897 398.967 157.46 403.895 153.989 408.797C151.33 412.539 148.585 416.119 145.623 419.649C144.63 421.194 143.653 422.748 142.694 424.312C139.024 429.513 135.177 434.578 131.136 439.521C129.813 441.2 129.813 441.2 129.023 443.896C128.378 443.896 127.734 443.896 127.07 443.896C126.96 444.443 126.851 444.99 126.738 445.553C126.031 447.827 125.128 449.097 123.591 450.948C123.069 451.592 122.546 452.237 122.008 452.901C121.423 453.622 120.837 454.343 120.234 455.086C114.912 461.773 114.912 461.773 110.286 468.9C108.924 471.187 107.715 472.884 105.953 474.845C103.682 477.201 103.682 477.201 102.734 479.202C101.444 481.646 99.8452 483.718 98.1412 485.919C97.4501 486.817 96.7591 487.715 96.0471 488.64C95.3283 489.569 94.6096 490.499 93.869 491.456C92.463 493.281 91.0592 495.107 89.6579 496.935C89.0374 497.74 88.4168 498.546 87.7774 499.375C86.1031 501.652 84.6206 503.99 83.1276 506.377C82.5033 507.108 81.879 507.839 81.2357 508.592C79.3249 510.914 77.8476 513.296 76.3494 515.874C74.2498 519.314 71.7266 522.479 69.1974 525.64C62.5749 533.927 56.4839 542.613 50.4762 551.314C48.4902 554.186 46.3298 556.851 44.068 559.532C43.4525 560.521 43.4525 560.521 42.8245 561.529C40.6307 564.998 38.2366 568.319 35.8289 571.656C35.3625 572.307 34.8961 572.959 34.4156 573.63C31.8987 577.125 29.2881 580.48 26.4912 583.779C26.0078 584.548 25.5245 585.317 25.0265 586.11C23.5617 588.442 23.5617 588.442 21.6698 590.656C19.759 592.979 18.2817 595.361 16.7835 597.938C14.6839 601.379 12.1607 604.544 9.63147 607.705C0.63509 618.963 -7.93526 630.832 -15.4216 643.058C-15.769 643.499 -16.1164 643.94 -16.4744 644.395C-17.1189 644.395 -17.7633 644.395 -18.4274 644.395C-18.6476 645.027 -18.8679 645.659 -19.0949 646.311C-20.7286 649.802 -22.9417 652.645 -25.3238 655.702C-28.7598 660.016 -28.7598 660.016 -31.1217 664.911C-31.7662 664.911 -32.4107 664.911 -33.0747 664.911C-33.397 666.142 -33.7192 667.373 -34.0512 668.641C-34.6957 668.641 -35.3402 668.641 -36.0042 668.641C-36.2282 669.278 -36.4523 669.915 -36.6832 670.572C-38.2574 673.948 -40.4207 676.767 -42.7176 679.715C-45.2317 682.957 -47.653 686.146 -49.6827 689.689C-51.6739 692.963 -53.9528 695.598 -56.5105 698.483C-58.2243 700.773 -59.8414 703.121 -61.454 705.477C-61.8649 706.072 -62.2759 706.667 -62.6994 707.28C-63.3083 708.162 -63.3083 708.162 -63.9295 709.062C-64.3237 709.631 -64.7178 710.201 -65.1239 710.788C-65.8867 711.903 -66.638 713.025 -67.3773 714.154C-68.2634 715.489 -69.2166 716.783 -70.1813 718.067C-70.8258 718.067 -71.4703 718.067 -72.1343 718.067C-72.3584 718.693 -72.5824 719.319 -72.8133 719.964C-74.4359 723.486 -76.5789 726.497 -78.8477 729.665C-79.2719 730.264 -79.6961 730.864 -80.1332 731.481C-80.9698 732.663 -81.8099 733.842 -82.6535 735.02C-83.4422 736.137 -84.214 737.265 -84.967 738.405C-85.8505 739.737 -86.7986 741.03 -87.7582 742.313C-88.4027 742.313 -89.0471 742.313 -89.7112 742.313C-89.8924 743.063 -90.0737 743.813 -90.2604 744.586C-91.8398 748.324 -93.9204 750.818 -96.558 753.926C-98.6347 756.467 -100.492 759.086 -102.345 761.78C-104.839 765.407 -107.396 768.955 -110.095 772.446C-113.663 777.074 -117.009 781.82 -120.298 786.63C-122.359 789.625 -124.489 792.532 -126.761 795.385C-129.839 799.262 -132.636 803.288 -135.423 807.359C-139.59 813.398 -143.901 819.242 -148.552 824.953C-150.051 826.91 -151.09 828.744 -152.207 830.906C-153.358 832.498 -154.541 834.07 -155.746 835.627C-156.437 836.525 -157.128 837.423 -157.84 838.348C-158.559 839.277 -159.278 840.206 -160.018 841.164C-161.425 842.988 -162.828 844.814 -164.23 846.642C-165.16 847.851 -165.16 847.851 -166.11 849.083C-167.786 851.361 -169.268 853.695 -170.76 856.085C-171.824 857.57 -172.902 859.047 -173.994 860.514C-176.686 864.154 -179.297 867.831 -181.841 871.566C-183.247 873.516 -184.708 875.394 -186.208 877.278C-189.32 881.217 -192.163 885.295 -194.989 889.423C-199.156 895.463 -203.467 901.307 -208.118 907.018C-209.617 908.975 -210.653 910.81 -211.772 912.97C-212.966 914.601 -214.19 916.212 -215.434 917.808C-217.917 921.027 -220.339 924.257 -222.636 927.6C-224.439 930.222 -226.31 932.748 -228.312 935.235C-231.227 938.885 -233.761 942.72 -236.276 946.63C-237.84 948.907 -239.468 951.067 -241.184 953.24C-241.71 953.907 -242.237 954.575 -242.78 955.264C-243.382 956.024 -243.382 956.024 -243.997 956.8C-237.385 956.374 -230.773 955.947 -224.162 955.518C-223.18 955.455 -222.199 955.391 -221.188 955.326C-209.583 954.573 -197.981 953.8 -186.384 952.954C-174.258 952.076 -162.133 951.47 -149.983 951.008C-140.855 950.653 -131.768 950.166 -122.668 949.398C-112.951 948.58 -103.232 947.958 -93.4951 947.417C-92.7784 947.377 -92.0618 947.337 -91.3234 947.296C-82.7732 946.823 -74.2225 946.41 -65.6651 946.076C-58.7059 945.803 -51.7902 945.332 -44.8536 944.735C-34.3063 943.83 -23.7541 943.301 -13.1787 942.812C-2.44504 942.315 8.27259 941.785 18.9844 940.947C28.723 940.185 38.464 939.568 48.2181 939.024C48.9328 938.984 49.6475 938.944 50.3838 938.902C58.8953 938.43 67.4071 938.015 75.926 937.683C83.9466 937.368 91.9192 936.774 99.9146 936.1C108.694 935.378 117.48 934.848 126.276 934.361C126.995 934.321 127.713 934.281 128.453 934.24C136.818 933.778 145.185 933.365 153.557 933.02C161.717 932.684 169.835 932.05 177.971 931.372C189.078 930.46 200.193 929.983 211.33 929.56C220.454 929.203 229.537 928.717 238.634 927.949C248.35 927.131 258.07 926.509 267.806 925.968C268.523 925.928 269.24 925.888 269.978 925.847C278.528 925.375 287.079 924.961 295.636 924.627C303.657 924.312 311.629 923.718 319.625 923.045C328.404 922.322 337.19 921.793 345.987 921.305C346.705 921.265 347.423 921.225 348.163 921.184C356.529 920.723 364.895 920.31 373.267 919.964C381.427 919.628 389.546 918.994 397.682 918.316C408.788 917.405 419.903 916.927 431.04 916.504C440.164 916.148 449.248 915.662 458.344 914.894C468.081 914.073 477.821 913.453 487.578 912.912C488.296 912.872 489.014 912.832 489.754 912.791C498.12 912.33 506.486 911.917 514.858 911.571C522.017 911.276 529.142 910.766 536.28 910.173C544.752 909.468 553.206 908.938 561.699 908.566C569.402 908.228 577.101 907.834 584.8 907.433C585.565 907.393 586.33 907.354 587.119 907.313C597.473 906.769 607.8 906.087 618.13 905.213C628.083 904.381 638.046 903.946 648.027 903.547C657.873 903.152 667.685 902.626 677.505 901.838C687.446 901.042 697.391 900.41 707.349 899.856C708.061 899.817 708.772 899.777 709.505 899.736C718.946 899.215 728.388 898.727 737.837 898.368C742.955 898.161 747.879 897.66 753 897.117C753 920.198 753 943.278 753 967.058C738.717 969.157 738.717 969.157 732.311 969.481C731.626 969.517 730.94 969.553 730.235 969.591C728.058 969.704 725.882 969.809 723.705 969.914C722.178 969.993 720.65 970.072 719.123 970.151C710.345 970.603 701.565 970.991 692.783 971.356C686.88 971.619 681.01 972.087 675.125 972.595C664.152 973.54 653.171 974.039 642.168 974.519C630.562 975.026 618.994 975.604 607.422 976.615C598.772 977.355 590.113 977.842 581.443 978.307C580.7 978.347 579.957 978.387 579.192 978.428C570.667 978.884 562.142 979.295 553.613 979.648C546.899 979.927 540.226 980.41 533.534 980.988C522.581 981.93 511.621 982.431 500.638 982.912C484.696 983.607 484.696 983.607 468.78 984.719C456.709 985.724 444.621 986.444 432.528 987.167C431.538 987.226 430.549 987.286 429.529 987.348C418.951 987.986 408.376 988.565 397.786 988.999C390.67 989.292 383.592 989.696 376.502 990.372C365.952 991.309 355.412 991.828 344.827 992.237C334.427 992.642 324.069 993.154 313.701 994.044C302.326 995.016 290.94 995.555 279.535 996.083C268.083 996.615 256.658 997.27 245.227 998.129C238.01 998.669 230.797 999.092 223.564 999.379C220.84 999.496 218.224 999.626 215.557 1000.19C212.284 1000.75 209.138 1000.67 205.819 1000.64C201.818 1000.62 197.833 1000.8 193.837 1000.98C192.954 1001.02 192.072 1001.06 191.162 1001.1C184.696 1001.42 178.254 1001.89 171.805 1002.44C162.068 1003.25 152.328 1003.88 142.571 1004.42C141.855 1004.46 141.139 1004.5 140.401 1004.54C131.83 1005.01 123.259 1005.43 114.68 1005.76C106.589 1006.07 98.5508 1006.7 90.4873 1007.41C80.8844 1008.24 71.2771 1008.65 61.6449 1009.02C51.1652 1009.43 40.7239 1009.95 30.2751 1010.83C20.3358 1011.67 10.3922 1012.28 0.431122 1012.81C-0.31004 1012.85 -1.0512 1012.89 -1.81482 1012.93C-10.3407 1013.39 -18.8676 1013.8 -27.3989 1014.15C-34.2526 1014.44 -41.0715 1014.92 -47.9052 1015.49C-57.6419 1016.31 -67.382 1016.93 -77.1388 1017.47C-77.8551 1017.51 -78.5713 1017.55 -79.3092 1017.6C-87.8802 1018.07 -96.4516 1018.48 -105.03 1018.82C-113.122 1019.13 -121.16 1019.75 -129.223 1020.46C-138.826 1021.29 -148.433 1021.71 -158.065 1022.08C-168.565 1022.49 -179.027 1023.01 -189.496 1023.89C-199.233 1024.7 -208.973 1025.33 -218.73 1025.87C-219.447 1025.91 -220.163 1025.95 -220.901 1025.99C-229.452 1026.46 -238.002 1026.87 -246.56 1027.21C-253.519 1027.48 -260.435 1027.95 -267.371 1028.55C-277.919 1029.45 -288.471 1029.98 -299.046 1030.47C-309.78 1030.97 -320.498 1031.5 -331.209 1032.34C-340.948 1033.1 -350.689 1033.72 -360.443 1034.26C-361.154 1034.3 -361.864 1034.34 -362.596 1034.38C-372.238 1034.92 -381.881 1035.38 -391.53 1035.76C-397.38 1036.01 -403.203 1036.37 -409.024 1037C-409.346 1036.38 -409.668 1035.77 -410 1035.13C-400.505 1021.37 -400.505 1021.37 -395.959 1015.75C-393.259 1012.23 -390.795 1008.55 -388.283 1004.9C-385.421 1000.78 -382.407 996.841 -379.118 993.013C-377.733 991.357 -377.733 991.357 -376.841 989.516C-375.556 987.066 -373.932 984.996 -372.222 982.795C-367.765 977.009 -363.395 971.171 -359.223 965.193C-357.589 962.854 -355.916 960.554 -354.218 958.257C-351.232 954.204 -348.353 950.092 -345.491 945.959C-342.585 941.768 -339.619 937.68 -336.405 933.698C-333.23 929.563 -330.317 925.253 -327.357 920.977C-326.969 920.419 -326.581 919.861 -326.181 919.286C-325.424 918.184 -324.68 917.075 -323.948 915.958C-323.06 914.621 -322.105 913.325 -321.139 912.038C-320.495 912.038 -319.85 912.038 -319.186 912.038C-319.005 911.288 -318.824 910.538 -318.637 909.765C-317.053 906.017 -314.953 903.511 -312.298 900.403C-309.568 897.021 -307.305 893.399 -305.008 889.74C-304.531 889.097 -304.054 888.454 -303.563 887.791C-302.918 887.791 -302.274 887.791 -301.61 887.791C-301.428 887.041 -301.247 886.291 -301.06 885.518C-299.482 881.784 -297.418 879.251 -294.786 876.142C-292.653 873.603 -290.623 871.009 -288.61 868.383C-287.649 867.133 -287.649 867.133 -286.669 865.858C-285.017 863.673 -285.017 863.673 -284.029 861.647C-282.38 858.541 -279.94 855.999 -277.647 853.309C-276.03 851.558 -276.03 851.558 -276.221 849.557C-275.576 849.557 -274.932 849.557 -274.268 849.557C-274.01 849.041 -273.752 848.525 -273.486 847.994C-269.829 841.225 -265.209 835.002 -260.185 829.106C-258.499 826.993 -257.144 824.792 -255.715 822.513C-253.458 819.313 -251.135 816.157 -248.82 812.996C-248.355 812.356 -247.89 811.716 -247.411 811.056C-246.989 810.48 -246.568 809.904 -246.134 809.311C-244.914 807.586 -244.914 807.586 -243.966 805.568C-243.02 803.862 -243.02 803.862 -241.067 802.929C-240.06 801.392 -239.088 799.835 -238.138 798.266C-237.074 796.78 -235.995 795.304 -234.903 793.837C-232.655 790.796 -230.453 787.738 -228.312 784.628C-225.958 781.225 -223.441 777.977 -220.855 774.734C-219.487 773.015 -219.487 773.015 -218.12 770.756C-216.839 768.717 -215.484 766.924 -213.97 765.044C-210.922 761.229 -208.267 757.226 -205.631 753.143C-203.915 750.64 -202.013 748.376 -200.055 746.043C-198.738 744.188 -197.437 742.321 -196.149 740.448C-194.409 738.013 -192.653 735.588 -190.9 733.162C-187.998 729.142 -185.104 725.119 -182.295 721.039C-177.981 714.819 -173.312 708.834 -168.563 702.913C-166.788 700.672 -165.23 698.433 -163.802 695.977C-162.105 693.113 -160.236 690.766 -158.065 688.225C-157.619 687.51 -157.172 686.794 -156.711 686.057C-155.096 683.498 -153.333 681.128 -151.474 678.724C-147.093 673.018 -142.781 667.269 -138.677 661.377C-135.745 657.185 -132.735 653.045 -129.726 648.903C-127.844 646.299 -125.998 643.713 -124.3 640.996C-122.644 638.375 -120.765 635.989 -118.823 633.554C-118.05 632.577 -117.277 631.599 -116.481 630.592C-116.088 630.096 -115.696 629.6 -115.292 629.089C-109.326 621.654 -109.326 621.654 -104.114 613.737C-102.471 610.934 -100.62 608.643 -98.4996 606.16C-98.054 605.446 -97.6084 604.732 -97.1493 603.996C-95.5167 601.413 -93.7284 599.025 -91.8472 596.601C-88.7805 592.621 -85.8768 588.58 -83.097 584.413C-81.8992 582.846 -81.8992 582.846 -79.9463 581.914C-79.3095 580.026 -79.3095 580.026 -78.9698 578.183C-78.3253 578.183 -77.6808 578.183 -77.0168 578.183C-76.7927 577.546 -76.5687 576.909 -76.3378 576.253C-74.7636 572.877 -72.6002 570.057 -70.3034 567.109C-67.7564 563.825 -65.3066 560.579 -63.2162 557.008C-61.7551 554.547 -60.3488 552.534 -58.4635 550.382C-54.2854 545.388 -50.6653 540.055 -47.0031 534.711C-44.4664 531.024 -41.8678 527.51 -38.9337 524.095C-37.759 522.551 -36.5992 520.997 -35.4549 519.433C-34.8897 518.663 -34.3245 517.894 -33.7422 517.101C-32.6611 515.568 -31.6252 514.005 -30.6411 512.413C-28.6611 509.312 -26.2993 506.574 -23.9163 503.75C-22.4558 501.872 -21.4573 500.074 -20.3803 497.984C-19.4514 496.741 -18.4939 495.517 -17.5119 494.312C-15.9164 492.319 -14.4533 490.413 -13.1177 488.25C-11.1454 485.161 -8.80453 482.414 -6.43484 479.595C-4.70741 477.405 -3.29053 475.163 -1.82703 472.805C4.05734 464.05 10.2006 455.487 16.712 447.149C20.3134 442.513 23.661 437.743 26.9742 432.916C29.748 428.901 32.6922 425.08 35.8899 421.358C37.263 419.611 38.1738 417.874 39.1856 415.919C40.2191 414.446 41.2793 412.99 42.3592 411.548C45.2478 407.672 47.9882 403.731 50.6479 399.709C51.2578 398.962 51.2578 398.962 51.8799 398.201C52.5244 398.201 53.1689 398.201 53.8329 398.201C54.135 397.046 54.135 397.046 54.4432 395.869C55.8428 392.467 57.5094 390.23 59.8483 387.385C62.0147 384.684 64.0279 381.891 66.0391 379.083C68.4503 375.726 70.8845 372.402 73.4848 369.175C75.6936 366.411 77.6554 363.554 79.5879 360.607C83.1164 355.232 86.9902 350.143 90.9396 345.045C94.2224 340.754 94.2224 340.754 97.2219 336.28C101.329 329.766 106.152 323.721 111.167 317.826C112.611 316.228 112.611 316.228 112.422 314.271C113.067 314.271 113.711 314.271 114.375 314.271C114.745 313.268 114.745 313.268 115.123 312.245C116.43 309.386 118.025 307.2 119.99 304.712C122.48 301.515 124.905 298.311 127.192 294.978C129.034 292.298 130.951 289.715 132.99 287.168C135.34 284.22 137.405 281.184 139.428 278.025C142.882 272.79 146.7 267.781 150.628 262.864C152.475 260.537 154.165 258.189 155.754 255.695C158.328 251.664 161.247 247.904 164.18 244.107C166.5 241.041 168.663 237.895 170.791 234.705C171.988 233.138 171.988 233.138 173.941 232.206C174.37 231.178 174.37 231.178 174.807 230.13C176.036 227.206 177.641 225.049 179.617 222.531C180.313 221.634 181.009 220.737 181.726 219.813C182.38 218.979 183.033 218.145 183.706 217.285C186.175 214.096 188.541 210.916 190.542 207.435C191.967 205.096 193.193 203.326 194.997 201.315C197.108 198.937 198.657 196.643 200.306 193.971C200.931 193.24 201.555 192.509 202.198 191.756C204.077 189.473 205.482 187.147 206.944 184.609C208.812 181.701 211.063 179.097 213.31 176.449C215.03 174.292 216.43 172.053 217.883 169.725C219.107 168.081 220.349 166.449 221.606 164.829C224.577 160.964 227.407 157.044 230.162 153.037C231.519 151.123 232.948 149.292 234.423 147.46C237.365 143.772 239.921 139.892 242.502 135.967C246.62 129.809 251.099 123.905 255.806 118.147C257.129 116.467 257.129 116.467 257.919 113.772C258.564 113.772 259.208 113.772 259.872 113.772C260.096 113.134 260.321 112.497 260.551 111.841C262.126 108.465 264.289 105.646 266.586 102.698C269.888 98.4398 272.821 94.1717 275.496 89.5252C276.141 89.5252 276.785 89.5252 277.449 89.5252C277.831 88.7588 277.831 88.7588 278.22 87.977C279.58 85.4666 281.111 83.1101 282.698 80.7242C283.555 79.4277 283.555 79.4277 284.43 78.105C286.209 75.5775 288.152 73.2502 290.144 70.8741C290.909 69.708 291.647 68.525 292.341 67.3187C293.187 65.8473 293.187 65.8473 294.05 64.3462C294.694 64.3462 295.339 64.3462 296.003 64.3462C296.35 63.4032 296.35 63.4032 296.704 62.441C298.259 59.0157 300.236 55.9956 302.35 52.8642C302.744 52.2625 303.138 51.6608 303.544 51.0409C304.555 49.5346 305.644 48.0762 306.744 46.6277C307.388 46.6277 308.033 46.6277 308.697 46.6277C308.999 45.8968 309.301 45.1659 309.612 44.4129C310.65 41.9649 310.65 41.9649 311.626 40.0998C312.271 40.0998 312.915 40.0998 313.579 40.0998C313.807 39.4699 314.035 38.84 314.27 38.191C315.85 34.7441 317.904 31.7832 320.11 28.676C320.76 27.7504 320.76 27.7504 321.424 26.8061C324.37 22.6514 327.456 18.6452 330.79 14.7642C332.161 13.0195 333.071 11.2749 334.086 9.32554C335.055 8.02417 336.053 6.74182 337.076 5.47875C339.195 2.85709 339.195 2.85709 340.921 0Z" fill="url(#paint0_linear_452_963)" fill-opacity="0.79"/>
<path d="M346.778 155.736C350.776 156.21 352.333 158.077 354.895 160.924C355.666 161.77 356.436 162.616 357.23 163.488C357.97 164.315 358.71 165.142 359.473 165.994C360.631 167.258 361.79 168.521 362.951 169.783C363.499 170.384 364.047 170.985 364.611 171.604C366.42 173.577 368.256 175.526 370.092 177.476C375.211 182.964 380.097 188.647 384.816 194.452C386.968 196.946 389.288 199.162 391.697 201.431C393.712 203.452 395.696 205.501 397.678 207.551C398.446 208.34 398.446 208.34 399.23 209.145C406.344 216.498 406.344 216.498 406.344 219.15C406.907 219.364 407.47 219.578 408.049 219.798C410.828 221.334 412.251 223.139 414.217 225.561C417.837 229.905 421.618 234.014 425.578 238.082C429.586 242.22 433.423 246.483 437.247 250.776C440.885 254.856 444.609 258.854 448.379 262.823C450.538 265.112 452.64 267.442 454.73 269.788C458.822 274.371 463.009 278.867 467.253 283.321C471.142 287.433 474.822 291.68 478.475 295.984C482.094 300.212 485.789 304.346 489.834 308.209C494.596 312.757 498.859 317.668 503.017 322.722C505.802 326.081 508.712 329.09 511.939 332.058C515.049 335.128 517.788 338.489 520.578 341.825C522.428 344.064 522.428 344.064 524.271 345.7C525.476 346.91 525.476 346.91 525.476 348.775C526.443 349.083 527.41 349.39 528.406 349.708C529.973 351.161 529.973 351.161 531.518 352.913C532.035 353.489 532.553 354.065 533.086 354.658C534.265 356.235 534.265 356.235 534.265 358.101C534.909 358.101 535.553 358.101 536.217 358.101C537.663 359.707 537.663 359.707 539.33 361.889C541.544 364.694 543.755 367.269 546.41 369.699C549.849 372.874 552.741 376.354 555.682 379.95C558.342 383.109 561.191 386.081 564.078 389.05C565.512 390.74 565.512 390.74 565.512 392.605C566.358 392.928 566.358 392.928 567.221 393.257C569.98 394.78 571.376 396.551 573.324 398.958C576.746 403.07 580.3 406.963 584.066 410.79C588.424 415.233 592.506 419.812 596.501 424.56C599.301 427.787 602.268 430.852 605.254 433.921C609.263 438.058 613.099 442.322 616.923 446.615C620.545 450.674 624.247 454.656 627.996 458.609C632.418 463.275 636.698 468.013 640.824 472.921C644.873 477.685 649.192 482.15 653.595 486.615C656.743 489.824 659.738 493.087 662.612 496.527C666.768 501.497 671.281 506.096 675.895 510.677C679.539 514.33 682.604 518.089 685.621 522.23C687.226 523.805 688.856 525.357 690.503 526.893C693.143 529.66 695.729 532.472 698.315 535.286C698.835 535.85 699.355 536.413 699.89 536.994C702.638 539.983 705.369 542.986 708.091 545.996C714.201 552.747 720.357 559.448 726.633 566.06C731.541 571.238 736.282 576.495 740.792 581.996C743.102 584.731 743.102 584.731 745.777 586.672C750.59 590.584 753.102 593.726 753.854 599.703C754.256 605.668 754.098 611.623 753.952 617.595C753.934 619.796 753.92 621.998 753.91 624.199C753.873 629.966 753.777 635.731 753.669 641.497C753.569 647.392 753.524 653.287 753.475 659.182C753.371 670.729 753.204 682.274 752.998 693.82C752.233 693.088 751.467 692.355 750.679 691.601C749.187 690.178 747.688 688.763 746.171 687.365C742.017 683.513 738.4 679.519 734.975 675.06C733.426 673.08 733.426 673.08 730.539 671.439C730.539 670.823 730.539 670.208 730.539 669.574C729.895 669.266 729.25 668.958 728.586 668.641C727.197 667.125 725.812 665.604 724.455 664.062C722.63 662.004 720.763 659.987 718.882 657.975C715.828 654.703 712.79 651.418 709.777 648.11C708.584 646.81 707.381 645.519 706.169 644.234C705.551 643.576 704.933 642.917 704.296 642.238C703.454 641.349 703.454 641.349 702.595 640.442C701.244 638.799 701.244 638.799 700.268 636.002C699.301 635.694 698.334 635.386 697.338 635.069C693.432 630.913 693.432 630.913 693.432 628.541C692.466 628.233 691.499 627.926 690.503 627.609C689.32 626.221 689.32 626.221 688.184 624.52C686.05 621.509 683.724 619.617 680.738 617.351C679.846 616.072 678.957 614.79 678.114 613.482C675.686 610.211 672.699 607.373 669.829 604.455C668.044 602.43 668.044 602.43 668.044 600.565C667.077 600.257 666.11 599.949 665.114 599.632C664.792 598.709 664.47 597.786 664.138 596.834C663.493 596.834 662.849 596.834 662.185 596.834C657.302 591.728 657.302 591.728 657.302 589.374C656.658 589.374 656.013 589.374 655.349 589.374C655.087 588.624 654.826 587.874 654.556 587.101C654.173 586.312 653.791 585.524 653.396 584.711C652.43 584.403 651.463 584.096 650.467 583.779C648.331 581.972 648.331 581.972 646.561 580.048C646.561 579.433 646.561 578.817 646.561 578.183C645.916 578.183 645.272 578.183 644.608 578.183C642.674 576.072 640.95 573.844 639.214 571.583C638.698 570.914 638.182 570.246 637.65 569.557C637.165 568.918 636.679 568.278 636.178 567.619C634.927 565.941 634.927 565.941 632.89 565.128C632.89 564.204 632.89 563.281 632.89 562.33C632.044 561.984 632.044 561.984 631.181 561.63C628.662 560.294 626.971 558.801 625.078 556.735C625.078 556.119 625.078 555.504 625.078 554.869C624.111 554.562 623.145 554.254 622.149 553.937C621.477 552.013 621.477 552.013 621.172 550.207C620.528 550.207 619.883 550.207 619.219 550.207C618.977 549.649 618.736 549.091 618.487 548.516C617.081 546.167 615.629 545.272 613.36 543.679C611.395 541.479 609.587 539.183 607.757 536.881C607.149 536.124 606.541 535.367 605.914 534.586C605.338 533.86 604.761 533.134 604.167 532.386C602.744 530.528 602.744 530.528 600.666 529.69C600.666 529.075 600.666 528.459 600.666 527.825C599.699 527.518 598.732 527.21 597.736 526.893C597.411 525.649 597.085 524.406 596.76 523.163C595.793 522.855 594.826 522.547 593.83 522.23C592.528 520.365 591.226 518.5 589.924 516.635C588.317 515.368 586.689 514.124 585.042 512.904C583.708 511.375 582.4 509.824 581.136 508.242C580.037 507.192 578.927 506.153 577.779 505.153C575.93 503.245 574.722 501.142 573.324 498.916C572.367 497.966 571.393 497.03 570.395 496.119C569.75 495.195 569.106 494.272 568.442 493.321C567.475 492.705 566.508 492.09 565.512 491.456C563.864 490.057 563.864 490.057 562.583 488.658C562.583 488.043 562.583 487.427 562.583 486.793C561.938 486.793 561.294 486.793 560.63 486.793C559.639 485.247 558.666 483.691 557.7 482.13C556.172 480.427 554.603 478.758 553.001 477.118C550.141 474.164 547.301 471.212 544.579 468.142C542.178 465.458 539.734 463.06 537.011 460.681C535.241 458.816 535.241 458.816 535.241 456.019C534.365 455.672 534.365 455.672 533.471 455.319C531.026 453.985 529.889 452.69 528.406 450.423C528.406 449.808 528.406 449.192 528.406 448.558C527.529 448.183 527.529 448.183 526.636 447.801C524.501 446.694 523.12 445.671 521.57 443.895C521.57 443.28 521.57 442.665 521.57 442.03C520.926 441.723 520.281 441.415 519.617 441.098C518.65 440.482 517.684 439.867 516.688 439.233C516.688 438.309 516.688 437.386 516.688 436.435C515.721 436.127 514.754 435.82 513.758 435.503C513.436 434.579 513.114 433.656 512.782 432.705C511.815 432.089 510.848 431.474 509.852 430.84C508.693 428.858 508.693 428.858 507.899 427.11C507.255 427.11 506.61 427.11 505.946 427.11C505.362 426.263 504.778 425.417 504.176 424.545C502.072 421.56 500.111 419.953 497.158 417.784C494.228 414.6 494.228 414.6 494.228 411.256C493.262 410.948 492.295 410.641 491.299 410.324C488.369 407.111 488.369 407.111 488.369 404.728C487.403 404.42 486.436 404.113 485.44 403.796C483.789 401.95 482.161 400.085 480.558 398.2C479.913 397.893 479.269 397.585 478.605 397.268C478.605 396.652 478.605 396.037 478.605 395.403C477.96 395.095 477.316 394.787 476.652 394.47C474.299 392.504 473.154 390.587 471.769 387.942C471.125 387.635 470.48 387.327 469.816 387.01C468.229 385.669 468.229 385.669 466.887 384.212C466.887 383.597 466.887 382.981 466.887 382.347C466.242 382.347 465.598 382.347 464.934 382.347C463.622 380.488 462.321 378.622 461.028 376.752C460.061 376.136 459.094 375.521 458.098 374.887C458.098 374.271 458.098 373.656 458.098 373.021C457.454 373.021 456.809 373.021 456.145 373.021C454.742 371.218 454.742 371.218 453.216 368.883C451.309 365.738 451.309 365.738 448.333 363.696C448.333 362.773 448.333 361.849 448.333 360.898C447.608 360.706 446.883 360.514 446.136 360.315C442.645 358.648 441.581 356.574 439.545 353.438C438.264 352.175 436.961 350.932 435.639 349.708C434.774 348.744 433.92 347.773 433.076 346.793C430.914 344.294 428.697 342.15 426.24 339.916C423.921 337.584 423.921 337.584 423.921 335.719C423.277 335.411 422.632 335.104 421.968 334.787C421.646 334.171 421.324 333.556 420.992 332.922C420.025 332.306 419.058 331.691 418.062 331.056C416.562 329.277 415.21 327.431 413.84 325.56C410.661 321.289 407.238 317.972 402.965 314.686C402.469 314.241 401.973 313.796 401.462 313.338C401.462 312.722 401.462 312.107 401.462 311.473C400.817 311.165 400.173 310.857 399.509 310.54C398.514 309.384 397.563 308.194 396.64 306.985C395.902 306.024 395.902 306.024 395.149 305.043C394.138 303.72 393.15 302.381 392.181 301.029C390.753 299.087 390.753 299.087 387.791 298.417C386.796 296.873 385.82 295.319 384.861 293.754C383.895 293.139 382.928 292.523 381.932 291.889C381.61 290.966 381.288 290.043 380.956 289.092C380.311 289.092 379.667 289.092 379.003 289.092C378.68 287.861 378.358 286.63 378.026 285.361C377.382 285.361 376.737 285.361 376.073 285.361C376.073 284.746 376.073 284.13 376.073 283.496C375.106 283.188 374.14 282.881 373.144 282.564C372.493 281.32 371.842 280.077 371.191 278.833C369.586 277.257 367.954 275.707 366.308 274.171C364.513 272.22 362.745 270.25 360.987 268.269C359.557 266.614 359.557 266.614 357.52 265.778C356.421 263.854 356.421 263.854 355.567 262.047C353.667 264.412 351.778 266.784 349.891 269.158C349.357 269.823 348.822 270.488 348.272 271.173C345.358 274.849 343.044 278.408 340.919 282.564C339.963 283.515 338.987 284.449 337.99 285.361C336.976 286.894 336.002 288.45 335.06 290.024C333.329 292.917 331.698 295.176 329.202 297.485C328.316 298.668 327.464 299.876 326.638 301.098C322.351 307.346 317.86 313.459 313.396 319.593C312.631 320.644 311.866 321.696 311.102 322.747C310 324.263 308.898 325.778 307.795 327.293C305.481 330.521 303.254 333.797 301.07 337.107C300.686 337.572 300.302 338.038 299.907 338.517C299.262 338.517 298.618 338.517 297.954 338.517C297.732 339.132 297.511 339.748 297.283 340.382C295.622 344.006 293.661 347.504 291.118 350.64C290.474 350.64 289.829 350.64 289.165 350.64C288.924 351.467 288.682 352.294 288.433 353.146C287.162 356.362 285.607 358.289 283.307 360.898C282.964 361.552 282.622 362.206 282.269 362.88C281.257 364.814 280.015 365.906 278.424 367.426C277.276 369.384 277.276 369.384 276.471 371.156C275.827 371.156 275.182 371.156 274.518 371.156C274.256 372.022 273.994 372.887 273.725 373.779C272.607 376.645 271.898 377.569 269.636 379.549C268.488 381.508 268.488 381.508 267.683 383.279C267.038 383.279 266.394 383.279 265.73 383.279C265.485 383.944 265.241 384.609 264.99 385.294C263.653 388.213 261.996 390.468 259.993 393.013C257.228 396.542 254.595 400.113 252.059 403.796C247.269 410.7 242.419 417.55 237.411 424.312C236.481 425.571 235.55 426.83 234.619 428.089C234.119 428.766 233.618 429.443 233.103 430.141C232.07 431.539 231.037 432.936 230.004 434.334C227.893 437.191 225.781 440.047 223.66 442.897C220.054 447.764 216.702 452.731 213.468 457.833C212.991 458.465 212.514 459.097 212.023 459.749C211.378 459.749 210.734 459.749 210.07 459.749C209.829 460.562 209.589 461.374 209.341 462.211C208.035 465.552 206.405 467.877 204.15 470.706C201.512 473.953 201.512 473.953 199.328 477.467C198.684 477.467 198.039 477.467 197.375 477.467C197.127 478.138 196.879 478.809 196.624 479.5C195.334 482.324 193.772 484.458 191.822 486.91C189.11 490.392 186.546 493.899 184.132 497.576C179.833 504.122 175.135 510.378 170.427 516.659C170.016 517.209 169.604 517.759 169.179 518.325C168.763 518.879 168.348 519.434 167.919 520.005C164.421 524.68 160.986 529.393 157.572 534.124C156.049 536.233 154.522 538.339 152.987 540.44C152.592 540.982 152.197 541.524 151.79 542.083C150.693 543.587 149.595 545.09 148.497 546.593C146.575 549.231 146.575 549.231 145.003 551.955C144.563 552.609 144.122 553.263 143.668 553.937C143.024 553.937 142.379 553.937 141.715 553.937C141.466 554.76 141.217 555.584 140.96 556.432C139.743 559.582 138.34 561.707 136.223 564.37C135.525 565.259 134.828 566.149 134.109 567.065C133.041 568.414 133.041 568.414 131.951 569.79C127.199 575.922 122.634 582.135 118.238 588.503C115.863 591.902 113.395 595.233 110.903 598.554C109.595 600.416 108.532 602.267 107.538 604.295C106.894 604.295 106.249 604.295 105.585 604.295C105.364 604.91 105.142 605.526 104.914 606.16C103.254 609.784 101.292 613.282 98.7498 616.418C98.1054 616.418 97.4609 616.418 96.7969 616.418C96.5552 617.08 96.3135 617.743 96.0645 618.425C94.6998 621.394 92.9847 623.685 90.9379 626.268C88.6719 629.136 86.7079 631.835 85.079 635.069C84.1025 636.002 83.126 636.934 82.1495 637.867C81.0014 639.825 81.0014 639.825 80.1965 641.597C79.552 641.597 78.9076 641.597 78.2435 641.597C78.0019 642.424 77.7602 643.251 77.5112 644.103C76.2141 647.386 74.7016 649.151 72.3846 651.855C70.8352 654.317 69.3374 656.802 67.8607 659.305C67.4201 659.924 66.9796 660.543 66.5257 661.181C65.8812 661.181 65.2367 661.181 64.5727 661.181C64.365 661.803 64.1573 662.426 63.9433 663.068C62.1707 666.785 59.6839 669.743 57.0659 672.954C51.8177 679.508 47.0673 686.218 42.6398 693.306C41.5322 695.058 40.3647 696.775 39.1839 698.483C38.5394 698.483 37.895 698.483 37.2309 698.483C36.9779 699.156 36.7249 699.829 36.4642 700.523C35.2284 703.255 33.7505 705.404 31.9213 707.808C30.109 710.201 28.4107 712.525 26.8824 715.094C26.4305 715.767 25.9786 716.44 25.5131 717.134C24.8686 717.134 24.2241 717.134 23.5601 717.134C23.173 718.154 23.173 718.154 22.7781 719.196C21.6024 721.807 20.247 723.819 18.4945 726.11C15.3383 730.311 12.4215 734.613 9.5726 739.009C7.93621 741.38 7.93622 741.38 5.99469 743.697C3.99813 746.081 2.30439 748.525 0.612549 751.114C0.0247095 752.003 -0.563145 752.893 -1.16879 753.809C-2.13082 755.274 -3.09054 756.74 -4.04486 758.21C-4.88384 759.47 -5.78931 760.69 -6.71114 761.896C-7.35562 761.896 -8.0001 761.896 -8.66411 761.896C-8.91209 762.566 -9.16007 763.236 -9.41556 763.925C-10.7085 766.76 -12.2743 768.928 -14.2179 771.397C-15.2583 772.737 -15.2583 772.737 -16.3196 774.103C-17.0157 774.999 -17.7118 775.895 -18.429 776.817C-22.316 781.963 -25.9961 787.093 -29.1704 792.671C-29.8149 792.671 -30.4594 792.671 -31.1234 792.671C-31.3852 793.536 -31.647 794.402 -31.9168 795.293C-33.0785 798.271 -33.7617 798.936 -36.0058 801.064C-37.0771 802.597 -38.111 804.154 -39.1184 805.726C-42.0861 810.254 -45.2619 814.567 -48.5781 818.866C-50.8983 821.9 -53.1664 824.965 -55.4136 828.049C-56.4974 829.533 -56.4974 829.533 -57.603 831.047C-59.0559 833.146 -60.3011 835.152 -61.3946 837.433C-62.0391 837.433 -62.6835 837.433 -63.3476 837.433C-63.6006 838.106 -63.8536 838.78 -64.1143 839.473C-65.3501 842.206 -66.828 844.354 -68.6572 846.759C-70.4695 849.151 -72.1678 851.475 -73.6961 854.044C-74.148 854.718 -74.5999 855.391 -75.0654 856.084C-75.7099 856.084 -76.3544 856.084 -77.0184 856.084C-77.3658 857.047 -77.3658 857.047 -77.7203 858.03C-79.2164 861.279 -81.2153 864.052 -83.3656 866.925C-84.1489 867.986 -84.9322 869.048 -85.7153 870.109C-86.39 871.02 -87.0647 871.931 -87.7598 872.87C-88.4043 873.794 -89.0488 874.717 -89.7128 875.668C-91.3055 877.562 -92.9537 879.407 -94.5952 881.263C-81.1243 881.45 -67.86 880.921 -54.4371 879.864C-50.9765 879.598 -47.5156 879.335 -44.0542 879.078C-42.8323 878.986 -42.8323 878.986 -41.5856 878.893C-36.8565 878.554 -32.1854 878.389 -27.4415 878.471C-23.0177 878.46 -18.6191 877.984 -14.2179 877.591C-2.38886 876.595 9.42841 876.013 21.2924 875.571C32.4916 875.151 43.6119 874.483 54.7718 873.486C59.6283 873.068 64.3904 872.784 69.272 872.87C80.0904 873.059 90.9079 871.857 101.679 871.005C104.263 870.804 106.846 870.611 109.43 870.422C110.345 870.353 111.26 870.283 112.203 870.211C114.783 870.098 117.298 870.099 119.878 870.138C129.304 870.17 138.709 869.206 148.095 868.47C157.093 867.77 165.982 867.166 175.017 867.28C179.689 867.272 184.307 866.837 188.953 866.401C190.911 866.229 192.869 866.057 194.827 865.887C195.764 865.805 196.702 865.722 197.667 865.637C205.379 864.973 213.063 864.411 220.811 864.536C226.58 864.589 232.225 864.127 237.961 863.603C246.465 862.833 254.933 862.386 263.472 862.146C273.968 861.848 284.408 861.258 294.878 860.496C301.924 859.99 308.959 859.603 316.019 859.348C324.335 859.047 332.621 858.543 340.919 857.949C350.044 857.298 359.155 856.785 368.298 856.454C377.824 856.093 387.332 855.472 396.842 854.835C402.83 854.445 408.748 854.182 414.748 854.243C419.127 854.199 423.471 853.748 427.827 853.345C434.923 852.723 442.012 852.151 449.127 851.771C449.796 851.734 450.465 851.697 451.154 851.659C454.731 851.479 458.281 851.421 461.863 851.454C466.999 851.473 472.034 851.036 477.14 850.547C485.015 849.844 492.853 849.376 500.759 849.148C514.845 848.736 528.886 847.747 542.939 846.774C543.847 846.712 544.756 846.65 545.691 846.586C547.395 846.47 549.099 846.351 550.802 846.229C555.373 845.918 559.895 845.797 564.477 845.829C567.222 845.825 569.939 845.652 572.676 845.451C573.797 845.371 574.919 845.291 576.074 845.209C577.221 845.124 578.368 845.039 579.549 844.952C587.98 844.335 596.407 843.816 604.851 843.407C611.217 843.096 617.579 842.736 623.941 842.358C624.94 842.299 625.938 842.24 626.967 842.179C631.065 841.936 635.163 841.691 639.261 841.445C650.7 840.761 662.136 840.121 673.586 839.62C681.081 839.291 688.568 838.872 696.057 838.424C698.109 838.303 700.16 838.184 702.212 838.064C704.337 837.939 706.462 837.814 708.588 837.69C715.377 837.291 722.166 836.897 728.956 836.51C730.404 836.427 731.852 836.343 733.3 836.259C735.322 836.141 737.344 836.025 739.366 835.911C740.516 835.844 741.666 835.778 742.851 835.71C746.23 835.565 749.615 835.568 752.998 835.568C752.998 853.109 752.998 870.651 752.998 888.724C751.065 888.724 749.131 888.724 747.139 888.724C746.817 889.339 746.495 889.955 746.163 890.589C745.196 890.281 744.229 889.973 743.233 889.656C741.013 889.714 738.795 889.839 736.581 890.006C734.819 890.132 734.819 890.132 733.022 890.261C729.649 890.535 729.649 890.535 726.694 891.092C723.016 891.62 719.415 891.582 715.709 891.521C709.892 891.469 704.203 891.634 698.414 892.25C696.362 892.454 696.362 892.454 693.432 892.454C691.986 892.59 690.54 892.739 689.095 892.895C683.404 893.454 677.727 893.63 672.011 893.794C662.596 894.102 653.209 894.589 643.815 895.252C642.139 895.368 642.139 895.368 640.429 895.486C634.884 895.86 634.884 895.86 629.4 896.676C627.128 897.099 625.14 897.211 622.831 897.175C622.046 897.167 621.26 897.159 620.45 897.151C619.206 897.134 619.206 897.134 617.938 897.117C607.847 897.047 597.735 897.203 587.727 898.574C583.43 899.053 579.244 899.008 574.922 898.924C572.24 898.864 572.24 898.864 569.418 899.914C567.283 899.957 565.146 899.95 563.01 899.914C558.117 899.881 553.39 900.046 548.534 900.577C539.723 901.508 530.965 901.886 522.104 901.721C519.624 901.611 519.624 901.611 517.664 902.712C514.744 902.778 511.838 902.709 508.918 902.654C506.149 902.708 503.763 903.106 501.064 903.645C499.6 903.683 498.134 903.684 496.67 903.645C493.407 903.604 490.592 903.951 487.393 904.577C485.436 904.577 483.479 904.576 481.523 904.544C479.363 904.533 479.363 904.533 476.407 905.102C473.716 905.511 472.382 905.231 469.816 904.577C469.246 904.721 468.676 904.866 468.088 905.014C465.482 905.607 463.154 905.565 460.478 905.51C457.306 905.444 455.274 905.476 452.239 906.442C450.653 906.483 449.065 906.479 447.479 906.442C444 906.404 440.997 906.69 437.592 907.375C434.988 907.375 432.384 907.375 429.78 907.375C428.914 907.548 428.048 907.721 427.156 907.899C424.504 908.378 422.638 907.889 420.015 907.375C419.154 907.591 419.154 907.591 418.276 907.812C414.652 908.641 411 908.321 407.294 908.249C404.48 908.22 404.48 908.22 402.133 908.759C399.286 909.281 396.58 909.436 393.684 909.535C392.581 909.574 391.478 909.613 390.341 909.653C389.197 909.69 388.054 909.727 386.876 909.764C385.166 909.825 385.166 909.825 383.422 909.887C374.941 910.177 374.941 910.177 370.947 910.154C368.506 910.171 366.69 910.519 364.355 911.105C362.911 911.146 361.466 911.142 360.022 911.105C355.114 911.057 350.294 911.379 345.405 911.768C341.43 912.073 337.454 912.325 333.474 912.562C332.467 912.623 332.467 912.623 331.44 912.686C328.735 912.846 326.054 912.97 323.343 912.97C321.653 913.14 319.965 913.315 318.277 913.495C313.56 913.926 309.451 913.726 304.789 912.97C304.789 913.586 304.789 914.201 304.789 914.835C303.964 914.824 303.138 914.814 302.287 914.802C294.82 914.746 287.923 915.198 280.56 916.351C277.448 916.7 277.448 916.7 274.518 915.768C269.385 915.608 269.385 915.608 264.326 916.234C262.039 916.66 260.173 916.732 257.857 916.7C248.341 916.35 248.341 916.35 239.364 918.565C237.579 918.634 235.792 918.643 234.005 918.624C232.932 918.617 231.859 918.609 230.753 918.602C228.49 918.578 226.227 918.553 223.964 918.529C222.887 918.522 221.81 918.515 220.701 918.507C219.716 918.496 218.731 918.486 217.716 918.474C215.051 918.562 212.672 918.967 210.07 919.498C208.117 919.498 206.164 919.498 204.211 919.498C203.599 919.652 202.987 919.806 202.357 919.964C200.102 920.477 198.162 920.49 195.85 920.431C192.977 920.357 191.373 920.476 188.587 921.363C187.115 921.428 185.64 921.442 184.166 921.421C183.312 921.414 182.458 921.407 181.578 921.4C179.785 921.375 177.992 921.351 176.2 921.327C175.344 921.319 174.489 921.312 173.608 921.305C172.829 921.294 172.05 921.283 171.247 921.272C169.076 921.362 167.243 921.764 165.151 922.296C163.3 922.337 161.448 922.333 159.597 922.296C154.52 922.255 149.672 922.608 144.645 923.228C138.185 923.993 131.857 924.178 125.359 924.102C115.343 924.004 105.489 924.898 95.5267 925.799C85.8503 926.633 76.2115 927.013 66.4951 926.933C62.8848 926.965 59.3463 927.267 55.7576 927.625C50.9862 928.062 46.2 928.297 41.4154 928.561C38.4032 928.718 38.4032 928.718 36.3303 929.303C34.1027 929.801 32.1664 929.847 29.8806 929.814C29.0318 929.806 28.1831 929.799 27.3087 929.79C25.9667 929.773 25.9667 929.773 24.5976 929.756C12.8195 929.663 12.8195 929.663 1.10078 930.689C0.778545 930.996 0.456305 931.304 0.124298 931.621C-2.8472 931.689 -5.80695 931.618 -8.77855 931.563C-11.6629 931.49 -11.6629 931.49 -14.523 932.554C-16.0347 932.619 -17.5492 932.632 -19.0622 932.612C-19.958 932.604 -20.8539 932.596 -21.7769 932.588C-23.2011 932.571 -23.2011 932.571 -24.6541 932.554C-38.3221 932.118 -38.3221 932.118 -51.6297 934.419C-54.593 934.483 -57.5425 934.417 -60.5058 934.361C-62.9905 934.412 -64.8853 934.721 -67.2535 935.351C-70.3661 935.468 -70.3661 935.468 -73.1125 935.351C-73.4347 935.044 -73.7569 934.736 -74.089 934.419C-76.0001 934.618 -77.9106 934.824 -79.8182 935.053C-84.5223 935.512 -89.2392 935.707 -93.9618 935.917C-97.484 936.085 -100.965 936.314 -104.463 936.747C-108.092 937.195 -111.696 937.499 -115.346 937.741C-116.499 937.819 -117.652 937.897 -118.84 937.978C-122.404 938.175 -125.935 938.148 -129.505 938.091C-135.731 938.091 -141.932 938.549 -148.141 938.95C-150.293 939.084 -152.446 939.203 -154.6 939.318C-155.303 939.357 -156.007 939.396 -156.732 939.435C-158.698 939.542 -160.663 939.647 -162.629 939.752C-165.188 939.958 -167.327 940.334 -169.785 940.947C-171.991 940.947 -174.197 940.941 -176.403 940.914C-188.957 940.73 -188.957 940.73 -201.349 942.375C-205.094 943.001 -208.775 942.91 -212.567 942.87C-213.722 942.864 -213.722 942.864 -214.9 942.857C-216.788 942.846 -218.675 942.83 -220.562 942.812C-220.562 939.676 -220.14 939.112 -218.274 936.666C-217.785 936.017 -217.295 935.367 -216.791 934.698C-216.264 934.01 -215.736 933.321 -215.192 932.612C-214.115 931.182 -213.039 929.752 -211.965 928.321C-211.168 927.264 -211.168 927.264 -210.356 926.185C-204.181 918.021 -204.181 918.021 -199.08 909.24C-198.435 909.24 -197.791 909.24 -197.127 909.24C-196.865 908.74 -196.603 908.24 -196.333 907.725C-195.951 906.994 -195.568 906.263 -195.174 905.51C-194.69 904.529 -194.207 903.548 -193.709 902.537C-192.244 899.914 -192.244 899.914 -190.291 898.982C-189.447 897.67 -188.661 896.323 -187.911 894.96C-186.312 892.063 -184.72 889.352 -182.479 886.859C-181.835 886.859 -181.19 886.859 -180.526 886.859C-179.882 885.012 -179.237 883.166 -178.573 881.263C-177.929 881.263 -177.284 881.263 -176.62 881.263C-176.359 880.59 -176.097 879.917 -175.827 879.223C-174.668 876.603 -173.423 874.284 -171.738 871.938C-171.094 871.938 -170.449 871.938 -169.785 871.938C-169.463 870.707 -169.141 869.476 -168.809 868.208C-168.164 868.208 -167.52 868.208 -166.856 868.208C-166.614 867.38 -166.372 866.553 -166.123 865.701C-164.84 862.454 -163.335 860.577 -160.997 857.949C-158.929 855.128 -157.255 852.825 -156.114 849.556C-155.47 849.556 -154.825 849.556 -154.161 849.556C-153.908 849.039 -153.656 848.521 -153.395 847.987C-152.053 845.543 -150.497 843.359 -148.84 841.098C-148.172 840.184 -147.505 839.271 -146.817 838.329C-146.119 837.38 -145.421 836.43 -144.701 835.452C-144.022 834.524 -143.343 833.596 -142.644 832.639C-139.979 828.999 -137.314 825.359 -134.621 821.737C-134.014 820.918 -133.407 820.1 -132.781 819.256C-132.243 818.533 -131.704 817.811 -131.15 817.067C-129.853 815.202 -128.79 813.346 -127.796 811.322C-127.151 811.322 -126.507 811.322 -125.843 811.322C-125.581 810.456 -125.319 809.591 -125.05 808.699C-123.886 805.717 -123.204 805.061 -120.96 802.929C-119.87 801.356 -118.815 799.76 -117.787 798.149C-115.008 793.886 -112.005 789.973 -108.64 786.117C-107.254 784.229 -106.725 782.801 -106.313 780.547C-105.669 780.547 -105.024 780.547 -104.36 780.547C-104.36 779.932 -104.36 779.317 -104.36 778.682C-103.407 777.728 -102.427 776.798 -101.431 775.885C-100.583 774.823 -99.7622 773.741 -98.9666 772.643C-98.5161 772.021 -98.0656 771.399 -97.6015 770.759C-97.1331 770.104 -96.6647 769.449 -96.182 768.774C-95.6998 768.104 -95.2175 767.434 -94.7206 766.744C-91.8187 762.672 -89.2145 758.557 -86.8215 754.192C-85.2789 751.727 -83.0431 749.931 -80.9244 747.908C-79.1536 745.179 -77.5736 742.372 -76.0419 739.515C-75.3974 739.515 -74.753 739.515 -74.089 739.515C-73.7667 738.284 -73.4445 737.053 -73.1125 735.785C-72.468 735.785 -71.8235 735.785 -71.1595 735.785C-70.9178 735.15 -70.6761 734.515 -70.4271 733.861C-68.1355 728.718 -65.6197 724.765 -61.3946 720.864C-60.1885 718.875 -60.1885 718.875 -59.4416 717.134C-58.7971 717.134 -58.1526 717.134 -57.4886 717.134C-57.2268 716.23 -56.965 715.326 -56.6952 714.394C-56.3126 713.452 -55.9299 712.51 -55.5356 711.538C-54.5689 711.231 -53.6022 710.923 -52.6062 710.606C-52.3645 709.837 -52.1228 709.067 -51.8738 708.275C-50.3819 704.285 -48.0617 701.668 -45.2443 698.439C-43.6228 696.748 -43.6228 696.748 -43.8178 694.753C-43.1733 694.753 -42.5288 694.753 -41.8648 694.753C-41.603 694.252 -41.3411 693.752 -41.0714 693.237C-40.6887 692.506 -40.306 691.775 -39.9118 691.022C-39.4687 690.099 -39.0256 689.176 -38.5691 688.225C-36.9823 685.427 -36.9823 685.427 -35.2048 683.791C-32.5675 681.196 -30.6609 678.287 -28.6822 675.227C-26.112 671.277 -23.4682 667.588 -20.382 663.978C-19.4477 662.689 -18.5314 661.387 -17.6356 660.073C-13.541 654.139 -9.26994 648.326 -4.88022 642.588C-2.70362 639.878 -2.70362 639.878 -1.82869 636.934C-1.1842 636.934 -0.539715 636.934 0.124298 636.934C0.768782 635.088 1.41326 633.241 2.07727 631.339C2.72176 631.339 3.36625 631.339 4.03026 631.339C4.03026 630.723 4.03026 630.108 4.03026 629.474C4.67475 629.474 5.31922 629.474 5.98323 629.474C6.37785 628.468 6.37786 628.468 6.78046 627.441C7.93444 624.815 9.26968 622.471 10.8047 620.032C11.2968 619.241 11.789 618.45 12.2961 617.635C13.7952 615.485 13.7952 615.485 15.2637 614.094C17.1613 612.268 18.3193 610.256 19.6541 608.025C21.3935 605.118 23.0452 602.91 25.5131 600.565C26.9698 598.637 28.3896 596.703 29.7852 594.736C32.2098 591.348 34.6366 587.968 37.1699 584.653C38.7371 582.521 40.0429 580.558 41.1369 578.183C41.7814 578.183 42.4259 578.183 43.0899 578.183C43.0899 577.26 43.0899 576.337 43.0899 575.386C43.7344 575.386 44.3789 575.386 45.0429 575.386C45.6874 573.539 46.3318 571.693 46.9958 569.79C47.6403 569.79 48.2848 569.79 48.9488 569.79C49.5933 567.944 50.2378 566.097 50.9018 564.195C51.5463 564.195 52.1908 564.195 52.8548 564.195C53.0524 563.593 53.25 562.99 53.4537 562.37C55.3785 558.336 58.0951 554.983 60.8498 551.431C61.9996 549.928 63.149 548.424 64.298 546.921C64.8506 546.201 65.4032 545.481 65.9726 544.74C67.8609 542.279 69.7365 539.81 71.5912 537.326C72.0884 536.666 72.5856 536.006 73.0979 535.326C74.4357 533.395 74.4357 533.395 75.356 530.973C76.468 528.337 78.0791 526.982 80.1965 525.028C80.1965 524.412 80.1965 523.797 80.1965 523.163C80.841 523.163 81.4855 523.163 82.1495 523.163C82.1495 522.547 82.1495 521.932 82.1495 521.297C83.126 520.365 84.1025 519.432 85.079 518.5C85.4012 517.577 85.7235 516.653 86.0555 515.702C86.6999 515.394 87.3444 515.087 88.0084 514.77C89.0319 512.928 90.0122 511.063 90.9379 509.174C91.5824 509.174 92.2269 509.174 92.8909 509.174C92.8909 508.251 92.8909 507.328 92.8909 506.377C93.5354 506.377 94.1799 506.377 94.8439 506.377C95.4884 504.53 96.1328 502.684 96.7969 500.781C97.4413 500.781 98.0858 500.781 98.7498 500.781C99.0821 499.8 99.0821 499.8 99.4212 498.8C100.538 496.463 101.484 495.104 103.205 493.204C105.724 490.704 105.724 490.704 106.562 487.726C107.206 487.726 107.851 487.726 108.515 487.726C108.837 486.495 109.159 485.264 109.491 483.995C110.136 483.995 110.78 483.995 111.444 483.995C111.746 483.264 112.048 482.534 112.36 481.781C113.397 479.333 113.397 479.333 114.374 477.467C115.018 477.467 115.663 477.467 116.327 477.467C116.629 476.342 116.629 476.342 116.937 475.194C118.677 470.889 121.074 467.058 124.139 463.479C124.783 463.479 125.428 463.479 126.092 463.479C126.333 462.825 126.575 462.171 126.824 461.497C128.212 458.448 129.873 455.887 131.951 453.221C132.595 453.221 133.239 453.221 133.903 453.221C134.206 452.096 134.206 452.096 134.514 450.948C136.254 446.642 138.651 442.811 141.715 439.233C142.36 439.233 143.004 439.233 143.668 439.233C143.93 438.367 144.192 437.502 144.462 436.61C145.591 433.715 146.272 432.842 148.551 430.84C149.054 430.013 149.558 429.186 150.077 428.334C150.771 427.266 150.771 427.266 151.48 426.177C152.125 426.177 152.769 426.177 153.433 426.177C154.078 424.331 154.722 422.484 155.386 420.582C156.031 420.582 156.675 420.582 157.339 420.582C157.581 419.755 157.823 418.928 158.072 418.075C159.336 414.874 160.878 412.897 163.198 410.324C163.52 409.708 163.843 409.093 164.175 408.458C164.819 408.458 165.464 408.458 166.128 408.458C166.269 407.901 166.41 407.343 166.555 406.768C166.994 405.137 167.523 403.528 168.081 401.931C168.725 401.931 169.37 401.931 170.034 401.931C170.396 401.152 170.396 401.152 170.766 400.357C172.199 397.825 174.004 395.778 175.893 393.538C177.702 390.813 179.31 388.051 180.775 385.145C181.42 385.145 182.064 385.145 182.728 385.145C183.007 384.611 183.287 384.077 183.575 383.527C185.246 380.336 186.916 377.145 188.587 373.954C189.231 373.954 189.876 373.954 190.54 373.954C190.54 373.338 190.54 372.723 190.54 372.089C190.963 371.704 191.386 371.319 191.822 370.923C193.99 368.776 195.086 366.383 196.399 363.696C197.043 363.696 197.688 363.696 198.352 363.696C198.473 363.138 198.594 362.58 198.718 362.006C199.328 359.966 199.328 359.966 201.281 357.168C201.926 357.168 202.57 357.168 203.234 357.168C203.567 356.245 203.567 356.245 203.906 355.303C205.566 351.678 207.527 348.181 210.07 345.045C210.714 345.045 211.359 345.045 212.023 345.045C212.023 344.122 212.023 343.198 212.023 342.247C212.667 342.247 213.312 342.247 213.976 342.247C214.234 341.568 214.492 340.889 214.758 340.189C215.936 337.568 217.296 335.521 219.041 333.213C219.644 332.408 220.247 331.602 220.868 330.772C221.494 329.943 222.12 329.113 222.764 328.259C223.988 326.61 225.209 324.958 226.426 323.305C226.965 322.577 227.503 321.85 228.059 321.101C229.668 318.901 229.668 318.901 231.141 316.329C231.599 315.649 232.057 314.97 232.529 314.27C233.173 314.27 233.818 314.27 234.482 314.27C234.702 313.487 234.923 312.703 235.15 311.895C236.682 308.056 238.816 305.181 241.378 301.914C244.528 297.985 244.528 297.985 247.176 293.754C247.821 293.754 248.465 293.754 249.129 293.754C249.395 293.069 249.661 292.384 249.934 291.678C251.027 289.216 252.252 287.213 253.829 285.012C254.344 284.293 254.858 283.574 255.389 282.833C256.157 281.777 256.157 281.777 256.941 280.699C257.403 280.052 257.865 279.405 258.341 278.739C261.57 274.292 261.57 274.292 263.777 273.238C264.467 272.014 265.107 270.764 265.73 269.508C267.009 267.319 268.324 265.151 269.636 262.98C270.28 262.98 270.925 262.98 271.589 262.98C271.833 262.164 272.077 261.348 272.329 260.507C273.597 257.241 275.137 254.97 277.326 252.197C278.319 250.926 278.319 250.926 279.332 249.629C280.693 247.944 282.073 246.272 283.471 244.613C285.292 242.425 286.718 240.217 288.189 237.801C289.014 236.456 289.849 235.115 290.691 233.779C291.297 232.804 291.297 232.804 291.916 231.809C292.297 231.324 292.678 230.84 293.071 230.341C293.716 230.341 294.36 230.341 295.024 230.341C295.275 229.67 295.525 228.999 295.783 228.308C297.047 225.525 298.582 223.342 300.456 220.899C302.391 218.371 303.749 216.535 304.789 213.555C305.746 212.603 306.722 211.67 307.719 210.757C308.041 210.142 308.363 209.526 308.695 208.892C309.34 208.892 309.984 208.892 310.648 208.892C310.852 208.284 311.056 207.675 311.266 207.049C313.117 203.141 315.7 199.875 318.338 196.419C322.69 190.704 322.69 190.704 326.524 184.667C328.225 181.848 328.225 181.848 330.178 180.915C331.201 179.073 332.182 177.209 333.108 175.32C333.752 175.32 334.396 175.32 335.06 175.32C335.201 174.762 335.342 174.204 335.488 173.63C336.576 169.589 337.867 167.977 340.919 165.062C343.39 162.056 345.506 159.381 346.778 155.736Z" fill="#4665FF"/>
</g>
</g>
<defs>
<linearGradient id="paint0_linear_452_963" x1="171.856" y1="0" x2="171.856" y2="1037" gradientUnits="userSpaceOnUse">
<stop stop-color="#2B4EFF"/>
<stop offset="0.5" stop-color="#0E1133"/>
</linearGradient>
<clipPath id="clip0_452_963">
<rect width="740" height="583" fill="white"/>
</clipPath>
</defs>
</svg>
