<svg width="17" height="18" viewBox="0 0 17 18" fill="none" xmlns="http://www.w3.org/2000/svg">
<path d="M2.48068 3.17257C4.08623 1.56859 6.02864 0.766602 8.3079 0.766602C10.5872 0.766602 12.5296 1.56859 14.1351 3.17257C15.7407 4.77813 16.5435 6.72054 16.5435 8.9998C16.5435 11.2791 15.7407 13.2215 14.1351 14.827C12.5296 16.4326 10.5872 17.2354 8.3079 17.2354C6.02864 17.2354 4.08623 16.4326 2.48068 14.827C0.876698 13.2215 0.074707 11.2791 0.074707 8.9998C0.074707 6.72054 0.876698 4.77813 2.48068 3.17257ZM12.0928 8.43549L7.57832 3.9541C7.42248 3.77623 7.23438 3.6873 7.01401 3.6873C6.79207 3.6873 6.60397 3.77623 6.44971 3.9541L5.91846 4.48535C5.74059 4.66165 5.65165 4.85526 5.65165 5.06618C5.65165 5.27554 5.74059 5.45813 5.91846 5.61396L9.27123 8.9998L5.91846 12.3856C5.74059 12.5415 5.65165 12.7296 5.65165 12.9499C5.65165 13.1719 5.74059 13.3608 5.91846 13.5166L6.44971 14.0479C6.626 14.2241 6.81961 14.3123 7.03054 14.3123C7.23989 14.3123 7.42248 14.2241 7.57832 14.0479L12.0928 9.5641C12.2486 9.40984 12.3265 9.22174 12.3265 8.9998C12.3265 8.77785 12.2486 8.58975 12.0928 8.43549Z" fill="white"/>
</svg>
