<svg width="13" height="13" viewBox="0 0 13 13" fill="none" xmlns="http://www.w3.org/2000/svg">
<path d="M5.51831 1.08667L6.06665 0.538332C6.22998 0.393147 6.38489 0.393147 6.53137 0.538332L12.2461 6.28222C12.4094 6.42741 12.4094 6.57324 12.2461 6.71972L6.53137 12.4617C6.38489 12.6069 6.22998 12.6069 6.06665 12.4617L5.51831 11.9133C5.46387 11.8589 5.43665 11.7863 5.43665 11.6956C5.43665 11.6048 5.46387 11.5225 5.51831 11.4486L9.7572 7.21167H0.433592C0.214518 7.21167 0.10498 7.10213 0.10498 6.88306V6.11694C0.10498 5.89787 0.214518 5.78833 0.433592 5.78833H9.7572L5.51831 1.55139C5.37313 1.38676 5.37313 1.23185 5.51831 1.08667Z" fill="white"/>
</svg>
