<svg width="33" height="32" viewBox="0 0 33 32" fill="none" xmlns="http://www.w3.org/2000/svg">
<g clip-path="url(#clip0_351_759)">
<path d="M26.1414 4.00016H20.5681C20.0081 2.4535 18.5414 1.3335 16.8081 1.3335C15.0748 1.3335 13.6081 2.4535 13.0481 4.00016H7.47477C6.00811 4.00016 4.80811 5.20016 4.80811 6.66683V25.3335C4.80811 26.8002 6.00811 28.0002 7.47477 28.0002H26.1414C27.6081 28.0002 28.8081 26.8002 28.8081 25.3335V6.66683C28.8081 5.20016 27.6081 4.00016 26.1414 4.00016ZM16.8081 4.00016C17.5414 4.00016 18.1414 4.60016 18.1414 5.3335C18.1414 6.06683 17.5414 6.66683 16.8081 6.66683C16.0748 6.66683 15.4748 6.06683 15.4748 5.3335C15.4748 4.60016 16.0748 4.00016 16.8081 4.00016ZM14.1414 22.6668L8.80811 17.3335L10.6881 15.4535L14.1414 18.8935L22.9281 10.1068L24.8081 12.0002L14.1414 22.6668Z" fill="white"/>
</g>
<defs>
<clipPath id="clip0_351_759">
<rect width="32" height="32" fill="white" transform="translate(0.808105)"/>
</clipPath>
</defs>
</svg>
