<svg width="22" height="20" viewBox="0 0 22 20" fill="none" xmlns="http://www.w3.org/2000/svg">
<path d="M4.70598 1.71L3.29598 0.29C0.000976562 3.563 0.000976562 5.935 0.000976562 9H1.00098L2.00098 8.937C2.00098 6.009 2.00098 4.396 4.70598 1.71ZM18.705 0.29L17.297 1.71C20.001 4.396 20.001 6.009 20.001 9L22.001 8.937C22.001 5.935 22.001 3.563 18.705 0.29ZM11.001 20C11.6203 20.0008 12.2244 19.8086 12.7295 19.4502C13.2345 19.0917 13.6153 18.5849 13.819 18H8.18298C8.38664 18.5849 8.76745 19.0917 9.27249 19.4502C9.77752 19.8086 10.3817 20.0008 11.001 20ZM18.001 12.586V8C18.001 4.783 15.816 2.073 12.856 1.258C12.563 0.52 11.847 0 11.001 0C10.155 0 9.43898 0.52 9.14598 1.258C6.18498 2.073 4.00098 4.783 4.00098 8V12.586L2.29398 14.293C2.20093 14.3857 2.12715 14.4959 2.07686 14.6172C2.02658 14.7386 2.00079 14.8687 2.00098 15V16C2.00098 16.2652 2.10633 16.5196 2.29387 16.7071C2.48141 16.8946 2.73576 17 3.00098 17H19.001C19.2662 17 19.5205 16.8946 19.7081 16.7071C19.8956 16.5196 20.001 16.2652 20.001 16V15C20.0012 14.8687 19.9754 14.7386 19.9251 14.6172C19.8748 14.4959 19.801 14.3857 19.708 14.293L18.001 12.586Z" fill="black"/>
</svg>
