<svg width="25" height="24" viewBox="0 0 25 24" fill="none" xmlns="http://www.w3.org/2000/svg">
<path d="M8.30811 4.5C8.30811 3.30653 8.78221 2.16193 9.62613 1.31802C10.47 0.474106 11.6146 0 12.8081 0C14.0016 0 15.1462 0.474106 15.9901 1.31802C16.834 2.16193 17.3081 3.30653 17.3081 4.5C17.3081 5.69347 16.834 6.83807 15.9901 7.68198C15.1462 8.52589 14.0016 9 12.8081 9C11.6146 9 10.47 8.52589 9.62613 7.68198C8.78221 6.83807 8.30811 5.69347 8.30811 4.5ZM12.0581 11.625V24L9.78936 22.8656C8.80967 22.3781 7.75029 22.0688 6.65811 21.9609L2.15811 21.5109C1.39404 21.4312 0.808105 20.7891 0.808105 20.0156V10.5C0.808105 9.67031 1.47842 9 2.30811 9H3.72842C6.70967 9 9.61592 9.91875 12.0581 11.625ZM13.5581 24V11.625C16.0003 9.91875 18.9065 9 21.8878 9H23.3081C24.1378 9 24.8081 9.67031 24.8081 10.5V20.0156C24.8081 20.7844 24.2222 21.4312 23.4581 21.5062L18.9581 21.9562C17.8706 22.0641 16.8065 22.3734 15.8269 22.8609L13.5581 24Z" fill="white"/>
</svg>
