<svg width="71" height="60" viewBox="0 0 71 60" fill="none" xmlns="http://www.w3.org/2000/svg">
<rect width="70" height="60" transform="translate(0.5)" fill="#2B4EFF"/>
<path d="M34.46 23.0398L35.165 22.3348C35.375 22.1482 35.5742 22.1482 35.7625 22.3348L43.11 29.7198C43.32 29.9065 43.32 30.094 43.11 30.2823L35.7625 37.6648C35.5742 37.8515 35.375 37.8515 35.165 37.6648L34.46 36.9598C34.39 36.8898 34.355 36.7965 34.355 36.6798C34.355 36.5632 34.39 36.4573 34.46 36.3623L39.91 30.9148H27.9225C27.6408 30.9148 27.5 30.774 27.5 30.4923V29.5073C27.5 29.2257 27.6408 29.0848 27.9225 29.0848H39.91L34.46 23.6373C34.2733 23.4257 34.2733 23.2265 34.46 23.0398Z" fill="white"/>
</svg>
