<svg width="20" height="20" viewBox="0 0 20 20" fill="none" xmlns="http://www.w3.org/2000/svg">
<path d="M10 2.5H4.16667C3.72464 2.5 3.30072 2.67559 2.98816 2.98816C2.67559 3.30072 2.5 3.72464 2.5 4.16667V15.8333C2.5 16.2754 2.67559 16.6993 2.98816 17.0118C3.30072 17.3244 3.72464 17.5 4.16667 17.5H15.8333C16.2754 17.5 16.6993 17.3244 17.0118 17.0118C17.3244 16.6993 17.5 16.2754 17.5 15.8333V10" stroke="#4B5563" stroke-width="2" stroke-linecap="round" stroke-linejoin="round"/>
<path d="M15.3123 2.18769C15.6438 1.85617 16.0934 1.66992 16.5623 1.66992C17.0311 1.66992 17.4807 1.85617 17.8123 2.18769C18.1438 2.51921 18.33 2.96885 18.33 3.43769C18.33 3.90653 18.1438 4.35617 17.8123 4.68769L10.3014 12.1994C10.1035 12.3971 9.85909 12.5418 9.59059 12.6202L7.19642 13.3202C7.12471 13.3411 7.0487 13.3424 6.97634 13.3238C6.90399 13.3053 6.83794 13.2676 6.78512 13.2148C6.73231 13.162 6.69466 13.096 6.67612 13.0236C6.65758 12.9512 6.65884 12.8752 6.67975 12.8035L7.37975 10.4094C7.45852 10.1411 7.60353 9.8969 7.80142 9.69936L15.3123 2.18769Z" stroke="#4B5563" stroke-width="2" stroke-linecap="round" stroke-linejoin="round"/>
</svg>
