<svg width="20" height="21" viewBox="0 0 20 21" fill="none" xmlns="http://www.w3.org/2000/svg">
<path d="M5 13.44L11.06 7.38L13.12 9.44L7.06 15.5H5V13.44ZM10 18.5C12.1217 18.5 14.1566 17.6571 15.6569 16.1569C17.1571 14.6566 18 12.6217 18 10.5C18 8.37827 17.1571 6.34344 15.6569 4.84315C14.1566 3.34285 12.1217 2.5 10 2.5C7.87827 2.5 5.84344 3.34285 4.34315 4.84315C2.84285 6.34344 2 8.37827 2 10.5C2 12.6217 2.84285 14.6566 4.34315 16.1569C5.84344 17.6571 7.87827 18.5 10 18.5ZM14.7 7.85L13.7 8.85L11.65 6.8L12.65 5.8C12.86 5.58 13.21 5.58 13.42 5.8L14.7 7.08C14.92 7.29 14.92 7.64 14.7 7.85ZM10 0.5C11.3132 0.5 12.6136 0.758658 13.8268 1.2612C15.0401 1.76375 16.1425 2.50035 17.0711 3.42893C17.9997 4.35752 18.7362 5.45991 19.2388 6.67317C19.7413 7.88642 20 9.18678 20 10.5C20 13.1522 18.9464 15.6957 17.0711 17.5711C15.1957 19.4464 12.6522 20.5 10 20.5C8.68678 20.5 7.38642 20.2413 6.17317 19.7388C4.95991 19.2362 3.85752 18.4997 2.92893 17.5711C1.05357 15.6957 0 13.1522 0 10.5C0 7.84784 1.05357 5.3043 2.92893 3.42893C4.8043 1.55357 7.34784 0.5 10 0.5Z" fill="white"/>
</svg>
