<svg width="17" height="17" viewBox="0 0 17 17" fill="none" xmlns="http://www.w3.org/2000/svg">
<path d="M14.6134 3.05566C14.76 3.05566 14.8912 3.11122 15.0067 3.22233C15.1134 3.329 15.1667 3.45789 15.1667 3.609V14.169C15.1667 14.3201 15.1134 14.449 15.0067 14.5557C14.8912 14.6668 14.76 14.7223 14.6134 14.7223H5.72004C5.57337 14.7223 5.44226 14.6668 5.32671 14.5557C5.22004 14.449 5.16671 14.3201 5.16671 14.169V12.2223H2.38671C2.24004 12.2223 2.10893 12.169 1.99337 12.0623C1.88671 11.9468 1.83337 11.8157 1.83337 11.669V6.109C1.83337 5.96233 1.88671 5.83122 1.99337 5.71566C2.10893 5.609 2.24004 5.55566 2.38671 5.55566H5.16671V3.609C5.16671 3.45789 5.22004 3.329 5.32671 3.22233C5.44226 3.11122 5.57337 3.05566 5.72004 3.05566M5.16671 9.59566L5.95337 11.0757H7.14671L5.83337 8.929L7.12004 6.81566H5.98004L5.25337 8.15566L5.22671 8.19566L5.20671 8.24233C5.09115 8.00678 4.96671 7.769 4.83337 7.529C4.72226 7.29344 4.60448 7.05566 4.48004 6.81566H3.27337L4.53337 8.94233L3.16671 11.0757H4.35337M9.75337 13.889V12.2223H6.00004V13.889M9.75337 11.389V9.309H8.50004V11.389M9.75337 8.47566V6.389H8.50004V8.47566M9.75337 5.55566V3.889H6.00004V5.55566M14.3334 13.889V12.2223H10.5867V13.889M14.3334 11.389V9.309H10.5867V11.389M14.3334 8.47566V6.389H10.5867V8.47566M14.3334 5.55566V3.889H10.5867V5.55566H14.3334Z" fill="#F5F5F5"/>
</svg>
