<svg width="21" height="21" viewBox="0 0 21 21" fill="none" xmlns="http://www.w3.org/2000/svg">
<path d="M10.0545 17.306C11.0057 17.306 11.8744 17.1993 12.6667 17.0149L10.9001 15.1949C10.6256 15.2166 10.3471 15.2343 10.0545 15.2343C4.67419 15.2343 2.58984 11.2504 2.08509 10.055C2.4641 9.18365 2.97599 8.38038 3.60135 7.67565L2.19569 6.22753C0.649271 7.9543 0.0630783 9.69349 0.0520181 9.72767C-0.0173394 9.9404 -0.0173394 10.1706 0.0520181 10.3834C0.0731331 10.4517 2.3797 17.306 10.0545 17.306ZM10.0545 2.80405C8.20744 2.80405 6.69017 3.21424 5.42528 3.82022L1.71608 0L0.294338 1.46469L18.3929 20.11L19.8147 18.6453L16.4775 15.2073C19.1058 13.1864 20.0439 10.4269 20.058 10.3834C20.1273 10.1706 20.1273 9.9404 20.058 9.72767C20.0359 9.65827 17.7293 2.80405 10.0545 2.80405ZM15.0537 13.7406L12.7612 11.3788C12.9523 10.9748 13.0709 10.5305 13.0709 10.055C13.0709 8.35517 11.7045 6.94745 10.0545 6.94745C9.59298 6.94745 9.16163 7.06968 8.7705 7.26753L6.9526 5.39471C7.95056 5.04191 8.99946 4.86642 10.0545 4.87575C15.4348 4.87575 17.5192 8.85963 18.0239 10.055C17.7203 10.7718 16.8515 12.481 15.0537 13.7406Z" fill="black"/>
</svg>
