<svg width="51" height="51" viewBox="0 0 51 51" fill="none" xmlns="http://www.w3.org/2000/svg">
<path d="M0.16748 25.8906C0.16748 12.0835 11.3604 0.890625 25.1675 0.890625C38.9746 0.890625 50.1675 12.0835 50.1675 25.8906C50.1675 39.6977 38.9746 50.8906 25.1675 50.8906C11.3604 50.8906 0.16748 39.6977 0.16748 25.8906Z" fill="#242424"/>
<g clip-path="url(#clip0_340_2107)">
<path d="M37.8081 26C37.8081 24.4241 37.4977 22.8637 36.8947 21.4078C36.2916 19.9519 35.4077 18.629 34.2934 17.5147C33.1791 16.4004 31.8562 15.5165 30.4003 14.9134C28.9444 14.3104 27.384 14 25.8081 14C24.2322 14 22.6718 14.3104 21.2159 14.9134C19.76 15.5165 18.4371 16.4004 17.3228 17.5147C16.2085 18.629 15.3246 19.9519 14.7216 21.4078C14.1185 22.8637 13.8081 24.4241 13.8081 26C13.8081 27.5759 14.1185 29.1363 14.7216 30.5922C15.3246 32.0481 16.2085 33.371 17.3228 34.4853C18.4371 35.5996 19.76 36.4835 21.2159 37.0866C22.6718 37.6896 24.2322 38 25.8081 38C27.384 38 28.9444 37.6896 30.4003 37.0866C31.8562 36.4835 33.1791 35.5996 34.2934 34.4853C35.4077 33.371 36.2916 32.0481 36.8947 30.5922C37.4977 29.1363 37.8081 27.5759 37.8081 26ZM9.80811 26C9.80811 21.7565 11.4938 17.6869 14.4944 14.6863C17.495 11.6857 21.5646 10 25.8081 10C30.0516 10 34.1212 11.6857 37.1218 14.6863C40.1224 17.6869 41.8081 21.7565 41.8081 26C41.8081 30.2435 40.1224 34.3131 37.1218 37.3137C34.1212 40.3143 30.0516 42 25.8081 42C21.5646 42 17.495 40.3143 14.4944 37.3137C11.4938 34.3131 9.80811 30.2435 9.80811 26ZM25.8081 31C27.1342 31 28.406 30.4732 29.3436 29.5355C30.2813 28.5979 30.8081 27.3261 30.8081 26C30.8081 24.6739 30.2813 23.4021 29.3436 22.4645C28.406 21.5268 27.1342 21 25.8081 21C24.482 21 23.2103 21.5268 22.2726 22.4645C21.3349 23.4021 20.8081 24.6739 20.8081 26C20.8081 27.3261 21.3349 28.5979 22.2726 29.5355C23.2103 30.4732 24.482 31 25.8081 31ZM25.8081 17C28.1951 17 30.4842 17.9482 32.1721 19.636C33.8599 21.3239 34.8081 23.6131 34.8081 26C34.8081 28.3869 33.8599 30.6761 32.1721 32.364C30.4842 34.0518 28.1951 35 25.8081 35C23.4212 35 21.132 34.0518 19.4441 32.364C17.7563 30.6761 16.8081 28.3869 16.8081 26C16.8081 23.6131 17.7563 21.3239 19.4441 19.636C21.132 17.9482 23.4212 17 25.8081 17ZM23.8081 26C23.8081 25.4696 24.0188 24.9609 24.3939 24.5858C24.769 24.2107 25.2777 24 25.8081 24C26.3385 24 26.8472 24.2107 27.2223 24.5858C27.5974 24.9609 27.8081 25.4696 27.8081 26C27.8081 26.5304 27.5974 27.0391 27.2223 27.4142C26.8472 27.7893 26.3385 28 25.8081 28C25.2777 28 24.769 27.7893 24.3939 27.4142C24.0188 27.0391 23.8081 26.5304 23.8081 26Z" fill="white"/>
</g>
<defs>
<clipPath id="clip0_340_2107">
<rect width="32" height="32" fill="white" transform="translate(9.80811 10)"/>
</clipPath>
</defs>
</svg>
