<svg width="45" height="45" viewBox="0 0 45 45" fill="none" xmlns="http://www.w3.org/2000/svg">
<path d="M1.5 4.375C1.5 2.71814 2.84315 1.375 4.5 1.375H40.5C42.1569 1.375 43.5 2.71815 43.5 4.375V40.375C43.5 42.0319 42.1569 43.375 40.5 43.375H4.5C2.84315 43.375 1.5 42.0319 1.5 40.375V4.375Z" fill="#285DA1"/>
<path d="M1.5 4.375C1.5 2.71814 2.84315 1.375 4.5 1.375H40.5C42.1569 1.375 43.5 2.71815 43.5 4.375V40.375C43.5 42.0319 42.1569 43.375 40.5 43.375H4.5C2.84315 43.375 1.5 42.0319 1.5 40.375V4.375Z" stroke="#285DA1" stroke-width="2"/>
<path d="M21.1542 21.8601V29.3164H23.9667V21.8601H26.5167L26.7792 19.298H23.9667V18.016C23.9667 17.628 24.025 17.356 24.1417 17.1999C24.2597 17.0453 24.5431 16.968 24.9917 16.968H26.7792V14.4038H24.2021C23.0299 14.4038 22.2285 14.6807 21.7979 15.2344C21.3688 15.7881 21.1542 16.6373 21.1542 17.7819V19.298H19.2792V21.8601H21.1542Z" fill="white"/>
</svg>
