<svg width="18" height="18" viewBox="0 0 18 18" fill="none" xmlns="http://www.w3.org/2000/svg">
<g id="svg">
<path id="Vector" d="M3.48068 3.17257C5.08623 1.56859 7.02864 0.766602 9.3079 0.766602C11.5872 0.766602 13.5296 1.56859 15.1351 3.17257C16.7407 4.77813 17.5435 6.72054 17.5435 8.9998C17.5435 11.2791 16.7407 13.2215 15.1351 14.827C13.5296 16.4326 11.5872 17.2354 9.3079 17.2354C7.02864 17.2354 5.08623 16.4326 3.48068 14.827C1.8767 13.2215 1.07471 11.2791 1.07471 8.9998C1.07471 6.72054 1.8767 4.77813 3.48068 3.17257ZM13.0928 8.43549L8.57832 3.9541C8.42248 3.77623 8.23438 3.6873 8.01401 3.6873C7.79207 3.6873 7.60397 3.77623 7.44971 3.9541L6.91846 4.48535C6.74059 4.66165 6.65165 4.85526 6.65165 5.06618C6.65165 5.27554 6.74059 5.45813 6.91846 5.61396L10.2712 8.9998L6.91846 12.3856C6.74059 12.5415 6.65165 12.7296 6.65165 12.9499C6.65165 13.1719 6.74059 13.3608 6.91846 13.5166L7.44971 14.0479C7.626 14.2241 7.81961 14.3123 8.03054 14.3123C8.23989 14.3123 8.42248 14.2241 8.57832 14.0479L13.0928 9.5641C13.2486 9.40984 13.3265 9.22174 13.3265 8.9998C13.3265 8.77785 13.2486 8.58975 13.0928 8.43549Z" fill="white"/>
</g>
</svg>
