<svg width="33" height="32" viewBox="0 0 33 32" fill="none" xmlns="http://www.w3.org/2000/svg">
<g clip-path="url(#clip0_351_756)">
<path d="M6.14152 7.99984H3.47485V26.6665C3.47485 28.1332 4.67485 29.3332 6.14152 29.3332H24.8082V26.6665H6.14152V7.99984ZM27.4749 2.6665H11.4749C10.0082 2.6665 8.80819 3.8665 8.80819 5.33317V21.3332C8.80819 22.7998 10.0082 23.9998 11.4749 23.9998H27.4749C28.9415 23.9998 30.1415 22.7998 30.1415 21.3332V5.33317C30.1415 3.8665 28.9415 2.6665 27.4749 2.6665ZM26.1415 14.6665H12.8082V11.9998H26.1415V14.6665ZM20.8082 19.9998H12.8082V17.3332H20.8082V19.9998ZM26.1415 9.33317H12.8082V6.6665H26.1415V9.33317Z" fill="white"/>
</g>
<defs>
<clipPath id="clip0_351_756">
<rect width="32" height="32" fill="white" transform="translate(0.808105)"/>
</clipPath>
</defs>
</svg>
