<svg width="25" height="21" viewBox="0 0 25 21" fill="none" xmlns="http://www.w3.org/2000/svg">
<path d="M7.35231 0.165444C7.30005 0.113004 7.23795 0.0713954 7.16958 0.0430049C7.10121 0.0146143 7.0279 0 6.95387 0C6.87983 0 6.80653 0.0146143 6.73816 0.0430049C6.66978 0.0713954 6.60769 0.113004 6.55543 0.165444L3.57043 3.1331L2.50636 2.09623C2.4541 2.04379 2.39201 2.00218 2.32364 1.97379C2.25526 1.9454 2.18196 1.93078 2.10793 1.93078C2.03389 1.93078 1.96059 1.9454 1.89221 1.97379C1.82384 2.00218 1.76175 2.04379 1.70949 2.09623L0.973549 2.8331C0.921109 2.88536 0.879501 2.94746 0.85111 3.01583C0.82272 3.0842 0.808105 3.15751 0.808105 3.23154C0.808105 3.30557 0.82272 3.37888 0.85111 3.44725C0.879501 3.51562 0.921109 3.57772 0.973549 3.62998L3.20433 5.85186C3.31568 5.9577 3.46344 6.01672 3.61707 6.01672C3.7707 6.01672 3.91845 5.9577 4.0298 5.85186L4.76058 5.11967L8.14496 1.73576C8.25041 1.63023 8.30999 1.48737 8.31078 1.33819C8.31157 1.189 8.25351 1.04552 8.14918 0.938882L7.35231 0.165444ZM7.35231 7.62748C7.30005 7.57504 7.23795 7.53343 7.16958 7.50504C7.10121 7.47665 7.0279 7.46204 6.95387 7.46204C6.87983 7.46204 6.80653 7.47665 6.73816 7.50504C6.66978 7.53343 6.60769 7.57504 6.55543 7.62748L3.57043 10.6144L2.50636 9.57842C2.4541 9.52598 2.39201 9.48437 2.32364 9.45598C2.25526 9.42759 2.18196 9.41298 2.10793 9.41298C2.03389 9.41298 1.96059 9.42759 1.89221 9.45598C1.82384 9.48437 1.76175 9.52598 1.70949 9.57842L0.973549 10.3139C0.921109 10.3661 0.879501 10.4282 0.85111 10.4966C0.82272 10.565 0.808105 10.6383 0.808105 10.7123C0.808105 10.7864 0.82272 10.8597 0.85111 10.928C0.879501 10.9964 0.921109 11.0585 0.973549 11.1108L3.19871 13.3373C3.30998 13.4431 3.45766 13.5022 3.61121 13.5022C3.76476 13.5022 3.91244 13.4431 4.02371 13.3373L4.75965 12.6019L8.14403 9.21655C8.24907 9.11175 8.30845 8.9697 8.30924 8.82132C8.31003 8.67295 8.25217 8.53027 8.14824 8.42436L7.35231 7.62748ZM3.80808 15.7514C2.56636 15.7514 1.53042 16.7592 1.53042 18.0014C1.53042 19.2436 2.5673 20.2514 3.80808 20.2514C4.40482 20.2514 4.97712 20.0143 5.39908 19.5924C5.82103 19.1704 6.05809 18.5981 6.05809 18.0014C6.05809 17.4047 5.82103 16.8324 5.39908 16.4104C4.97712 15.9884 4.40482 15.7514 3.80808 15.7514ZM24.0581 16.5014H10.5581C10.3592 16.5014 10.1684 16.5804 10.0278 16.7211C9.88711 16.8617 9.80809 17.0525 9.80809 17.2514V18.7514C9.80809 18.9503 9.88711 19.1411 10.0278 19.2817C10.1684 19.4224 10.3592 19.5014 10.5581 19.5014H24.0581C24.257 19.5014 24.4478 19.4224 24.5884 19.2817C24.7291 19.1411 24.8081 18.9503 24.8081 18.7514V17.2514C24.8081 17.0525 24.7291 16.8617 24.5884 16.7211C24.4478 16.5804 24.257 16.5014 24.0581 16.5014ZM24.0581 1.50138H10.5581C10.3592 1.50138 10.1684 1.5804 10.0278 1.72105C9.88711 1.86171 9.80809 2.05247 9.80809 2.25138V3.75139C9.80809 3.9503 9.88711 4.14106 10.0278 4.28172C10.1684 4.42237 10.3592 4.50139 10.5581 4.50139H24.0581C24.257 4.50139 24.4478 4.42237 24.5884 4.28172C24.7291 4.14106 24.8081 3.9503 24.8081 3.75139V2.25138C24.8081 2.05247 24.7291 1.86171 24.5884 1.72105C24.4478 1.5804 24.257 1.50138 24.0581 1.50138ZM24.0581 9.00139H10.5581C10.3592 9.00139 10.1684 9.08041 10.0278 9.22106C9.88711 9.36171 9.80809 9.55248 9.80809 9.75139V11.2514C9.80809 11.4503 9.88711 11.6411 10.0278 11.7817C10.1684 11.9224 10.3592 12.0014 10.5581 12.0014H24.0581C24.257 12.0014 24.4478 11.9224 24.5884 11.7817C24.7291 11.6411 24.8081 11.4503 24.8081 11.2514V9.75139C24.8081 9.55248 24.7291 9.36171 24.5884 9.22106C24.4478 9.08041 24.257 9.00139 24.0581 9.00139Z" fill="white"/>
</svg>
