<svg width="45" height="45" viewBox="0 0 45 45" fill="none" xmlns="http://www.w3.org/2000/svg">
<path d="M1.5 4.375C1.5 2.71814 2.84315 1.375 4.5 1.375H40.5C42.1569 1.375 43.5 2.71815 43.5 4.375V40.375C43.5 42.0319 42.1569 43.375 40.5 43.375H4.5C2.84315 43.375 1.5 42.0319 1.5 40.375V4.375Z" fill="#D2173F"/>
<path d="M1.5 4.375C1.5 2.71814 2.84315 1.375 4.5 1.375H40.5C42.1569 1.375 43.5 2.71815 43.5 4.375V40.375C43.5 42.0319 42.1569 43.375 40.5 43.375H4.5C2.84315 43.375 1.5 42.0319 1.5 40.375V4.375Z" stroke="#D2173F" stroke-width="2"/>
<path d="M18.7791 24.0264C18.9555 23.735 19.0437 23.4678 19.0437 23.2248C19.0437 22.9818 18.9993 22.7926 18.9104 22.6573C18.8229 22.5206 18.7208 22.3508 18.6041 22.1478C18.4861 21.9434 18.4173 21.7439 18.3979 21.5492C18.2812 20.8312 18.3597 20.1373 18.6333 19.4677C18.9069 18.798 19.3118 18.2588 19.8479 17.85C20.3854 17.4427 20.9764 17.132 21.6208 16.918C22.2653 16.7054 22.9291 16.6764 23.6125 16.831C24.2972 16.987 24.893 17.3171 25.4 17.821C25.8305 18.2684 26.0944 18.914 26.1916 19.7576C26.2889 20.6027 26.2354 21.4091 26.0312 22.1768C25.8257 22.9431 25.4541 23.5886 24.9166 24.1133C24.3791 24.6367 23.7687 24.8307 23.0854 24.6954C22.5784 24.5987 22.2659 24.3557 22.1479 23.9663C22.0312 23.5783 22.0507 23.1323 22.2062 22.6283C22.3632 22.1229 22.5291 21.6127 22.7041 21.0977C22.8805 20.584 22.9493 20.1083 22.9104 19.6706C22.8715 19.2343 22.6465 18.9381 22.2354 18.7821C21.8062 18.6274 21.4111 18.6571 21.05 18.8711C20.6889 19.0838 20.425 19.3889 20.2583 19.7866C20.093 20.1857 20.0104 20.6324 20.0104 21.1267C20.0104 21.6224 20.1076 22.0546 20.3021 22.4233C20.2243 22.8113 20.1076 23.2966 19.9521 23.8793C19.7951 24.462 19.6632 24.957 19.5562 25.3644C19.4479 25.7731 19.3403 26.2881 19.2333 26.9095C19.1264 27.5308 19.0729 28.0742 19.0729 28.5395C19.0729 29.0062 19.1021 29.5986 19.1604 30.3166C19.8048 29.8513 20.2882 29.2106 20.6104 28.3945C20.9326 27.5785 21.2208 26.5394 21.475 25.2774C21.5916 25.3354 21.7479 25.4327 21.9437 25.5694C22.1382 25.7047 22.2944 25.8069 22.4125 25.8759C22.5291 25.9436 22.6805 26.0113 22.8666 26.0789C23.0514 26.1466 23.2514 26.1901 23.4666 26.2094C24.5416 26.3074 25.484 26.0258 26.2937 25.3644C27.1048 24.7043 27.6764 23.8503 28.0083 22.8023C28.3403 21.7543 28.4278 20.6669 28.2708 19.5401C28.0764 18.1221 27.3493 17.0395 26.0896 16.2925C24.8298 15.5455 23.3791 15.2686 21.7375 15.462C20.4291 15.5987 19.2673 16.1475 18.2521 17.1086C17.2368 18.0696 16.7097 19.2295 16.6708 20.5882C16.5916 22.5503 17.2944 23.6963 18.7791 24.0264Z" fill="white"/>
</svg>
