<svg width="67" height="58" viewBox="0 0 67 58" fill="none" xmlns="http://www.w3.org/2000/svg">
<path d="M16.9375 -0.187706C17.9617 -0.181905 18.9858 -0.176105 20.041 -0.170128C25.3368 -0.0844353 29.4711 0.520348 34.5 2.24979C35.49 1.58979 36.48 0.929794 37.5 0.249794C41.2762 -0.212618 45.0735 -0.120536 48.875 -0.125206C50.4373 -0.161944 50.4373 -0.161944 52.0312 -0.199425C59.7023 -0.228853 59.7023 -0.228853 63.6641 2.14823C67.6827 6.74825 66.722 11.8362 66.75 17.6873C66.7706 18.7308 66.7913 19.7743 66.8125 20.8494C66.8593 30.2823 65.7632 39.8016 59.5 47.2498C49.4959 57.1682 49.4959 57.1682 42.4375 57.3123C38.3726 55.842 36.8615 53.8258 34.5 50.2498C33.3145 46.6193 33.1401 45.0642 34.6875 41.5623C36.4728 39.2844 38.0382 37.7586 40.5 36.2498C41.16 36.2498 41.82 36.2498 42.5 36.2498C42.83 35.2598 43.16 34.2698 43.5 33.2498C42.3862 33.1054 41.2725 32.961 40.125 32.8123C36.5 32.2498 36.5 32.2498 34.5 31.2498C34.3298 31.9021 34.1597 32.5543 33.9844 33.2264C31.0258 43.8961 25.6543 50.311 16.375 56.2498C12.8368 57.4805 11.0382 57.4805 7.5 56.2498C4.33419 52.9129 2.64296 50.5126 2.125 45.9373C2.5994 41.2724 3.9766 40.2127 7.5 37.2498C8.26313 36.4867 9.02625 35.7235 9.8125 34.9373C10.3694 34.3804 10.9263 33.8235 11.5 33.2498C10.4275 33.1879 9.355 33.126 8.25 33.0623C4.5 32.2498 4.5 32.2498 2.30078 30.3865C-0.366753 25.74 -0.121094 21.5164 -0.0625 16.2498C-0.0863477 15.2649 -0.110195 14.2801 -0.134766 13.2654C-0.125749 8.81723 0.0743954 5.98867 2.32031 2.08964C7.12587 -0.690976 11.4889 -0.361924 16.9375 -0.187706ZM4.5 6.24979C4.20619 8.46299 4.20619 8.46299 4.26953 11.0037C4.27146 11.9402 4.2734 12.8767 4.27539 13.8416C4.28764 14.8219 4.29988 15.8023 4.3125 16.8123C4.31314 17.7965 4.31379 18.7807 4.31445 19.7947C3.91889 24.3622 3.91889 24.3622 5.5 28.2498C7.17884 28.643 8.8685 28.9906 10.5625 29.3123C11.4816 29.4889 12.4007 29.6655 13.3477 29.8475C14.0579 29.9802 14.7682 30.113 15.5 30.2498C15.5625 32.7498 15.5625 32.7498 14.5 36.2498C12.2205 38.4193 9.85029 40.3309 7.33594 42.2225C5.18855 44.1156 5.18855 44.1156 5.61719 46.8475C6.73371 49.8858 7.87358 51.3529 10.5 53.2498C16.4283 52.7484 20.2453 49.1141 24.5 45.2498C31.0567 37.18 30.8157 28.9012 30.75 18.9373C30.7577 17.7456 30.7655 16.5538 30.7734 15.326C30.7696 13.6234 30.7696 13.6234 30.7656 11.8865C30.7634 10.8523 30.7611 9.81805 30.7588 8.75248C30.748 6.07741 30.748 6.07741 28.5 4.24979C26.2061 3.93928 26.2061 3.93928 23.5625 3.98417C22.5854 3.98159 21.6083 3.97901 20.6016 3.97636C19.578 3.98409 18.5545 3.99183 17.5 3.99979C16.4765 3.99206 15.453 3.98433 14.3984 3.97636C13.4213 3.97893 12.4442 3.98151 11.4375 3.98417C10.539 3.98642 9.64055 3.98868 8.71484 3.991C6.29458 4.0417 6.29458 4.0417 4.5 6.24979ZM36.708 5.51688C35.2296 7.63768 35.1261 8.8055 35.1367 11.3748C35.1374 12.1637 35.138 12.9526 35.1387 13.7654C35.1548 14.5853 35.1709 15.4051 35.1875 16.2498C35.1843 17.0696 35.1811 17.8895 35.1777 18.7342C35.1694 23.7806 35.1694 23.7806 37.5 28.2498C39.9252 28.8317 39.9252 28.8317 42.625 28.9373C43.9901 29.0359 43.9901 29.0359 45.3828 29.1365C46.0815 29.1739 46.7802 29.2113 47.5 29.2498C47.5589 32.0758 47.5307 33.6609 46.5 36.2498C44.2383 38.4737 41.883 40.3689 39.3359 42.2576C37.1894 44.1172 37.1894 44.1172 37.5977 46.8475C38.6861 49.7453 40.1855 51.2339 42.5 53.2498C49.6887 51.6323 54.423 46.8734 58.875 41.2498C62.8284 33.9513 62.8088 27.1482 62.75 18.9998C62.7577 17.9118 62.7655 16.8239 62.7734 15.7029C62.7709 14.6614 62.7683 13.6198 62.7656 12.5467C62.7634 11.6015 62.7611 10.6563 62.7588 9.68241C62.6626 6.99149 62.6626 6.99149 60.5 4.24979C58.2295 3.7847 58.2295 3.7847 55.5977 3.85136C54.1388 3.84556 54.1388 3.84556 52.6504 3.83964C51.6314 3.85124 50.6124 3.86284 49.5625 3.87479C48.5474 3.86319 47.5322 3.85159 46.4863 3.83964C45.5124 3.8435 44.5386 3.84737 43.5352 3.85136C42.6419 3.85474 41.7487 3.85812 40.8284 3.86161C38.4604 4.08281 38.4604 4.08281 36.708 5.51688Z" fill="#2B4EFF"/>
</svg>
