<svg width="13" height="14" viewBox="0 0 13 14" fill="none" xmlns="http://www.w3.org/2000/svg">
<path d="M5.41333 1.58691L5.96167 1.03858C6.125 0.893391 6.27991 0.893391 6.42639 1.03858L12.1411 6.78246C12.3044 6.92765 12.3044 7.07348 12.1411 7.21997L6.42639 12.9619C6.27991 13.1071 6.125 13.1071 5.96167 12.9619L5.41333 12.4136C5.35889 12.3591 5.33167 12.2865 5.33167 12.1958C5.33167 12.1051 5.35889 12.0227 5.41333 11.9489L9.65222 7.71191H0.328611C0.109537 7.71191 0 7.60237 0 7.3833V6.61719C0 6.39811 0.109537 6.28858 0.328611 6.28858H9.65222L5.41333 2.05163C5.26815 1.887 5.26815 1.73209 5.41333 1.58691Z" fill="white"/>
</svg>
