<svg width="14" height="18" viewBox="0 0 14 18" fill="none" xmlns="http://www.w3.org/2000/svg">
<path d="M3.25 15.6387H4.75V17.1387H3.25V15.6387ZM6.25 15.6387H7.75V17.1387H6.25V15.6387ZM9.25 15.6387H10.75V17.1387H9.25V15.6387ZM10.75 0.638672H1.75C0.9175 0.638672 0.25 1.31367 0.25 2.13867V12.6387C0.25 13.4637 0.9175 14.1387 1.75 14.1387H12.25C13.075 14.1387 13.75 13.4637 13.75 12.6387V3.63867L10.75 0.638672ZM12.25 12.6387H1.75V2.13867H10.1275L12.25 4.26117V12.6387ZM7 7.38867C5.755 7.38867 4.75 8.39367 4.75 9.63867C4.75 10.8837 5.755 11.8887 7 11.8887C8.245 11.8887 9.25 10.8837 9.25 9.63867C9.25 8.39367 8.245 7.38867 7 7.38867ZM2.5 2.88867H9.25V5.88867H2.5V2.88867Z" fill="white"/>
</svg>
