<svg width="25" height="21" viewBox="0 0 25 21" fill="none" xmlns="http://www.w3.org/2000/svg">
<path d="M3.80811 1.5C3.80811 0.670312 3.13779 0 2.30811 0C1.47842 0 0.808105 0.670312 0.808105 1.5V17.25C0.808105 19.3219 2.48623 21 4.55811 21H23.3081C24.1378 21 24.8081 20.3297 24.8081 19.5C24.8081 18.6703 24.1378 18 23.3081 18H4.55811C4.14561 18 3.80811 17.6625 3.80811 17.25V1.5ZM22.8675 5.55938C23.4534 4.97344 23.4534 4.02188 22.8675 3.43594C22.2815 2.85 21.33 2.85 20.744 3.43594L15.8081 8.37656L13.1175 5.68594C12.5315 5.1 11.58 5.1 10.994 5.68594L5.74404 10.9359C5.15811 11.5219 5.15811 12.4734 5.74404 13.0594C6.32998 13.6453 7.28154 13.6453 7.86748 13.0594L12.0581 8.87344L14.7487 11.5641C15.3347 12.15 16.2862 12.15 16.8722 11.5641L22.8722 5.56406L22.8675 5.55938Z" fill="white"/>
</svg>
