<svg width="25" height="25" viewBox="0 0 25 25" fill="none" xmlns="http://www.w3.org/2000/svg">
<path id="Vector" d="M23.8672 19.2998L18.3908 14.3205C18.1319 14.0853 17.7917 13.9598 17.4421 13.9706C17.0924 13.9814 16.7607 14.1276 16.5168 14.3785L13.2929 17.6939C12.5169 17.5457 10.9569 17.0594 9.35098 15.4576C7.7451 13.8504 7.25876 12.2863 7.11461 11.5157L10.4274 8.29046C10.6785 8.04679 10.825 7.71496 10.8358 7.36521C10.8466 7.01545 10.7209 6.67522 10.4853 6.4165L5.50738 0.941468C5.27168 0.681938 4.94408 0.524514 4.59418 0.502629C4.24427 0.480745 3.89962 0.596123 3.63341 0.824261L0.709955 3.33141C0.477037 3.56517 0.338016 3.87628 0.319263 4.20574C0.299055 4.54254 -0.0862484 12.5207 6.10016 18.7097C11.4971 24.1053 18.2574 24.5 20.1193 24.5C20.3914 24.5 20.5585 24.4919 20.6029 24.4892C20.9323 24.4708 21.2433 24.3311 21.4759 24.0972L23.9817 21.1724C24.2108 20.9071 24.327 20.5627 24.3056 20.2128C24.2842 19.8629 24.1269 19.5353 23.8672 19.2998Z" fill="white"/>
</svg>
