<svg width="19" height="18" viewBox="0 0 19 18" fill="none" xmlns="http://www.w3.org/2000/svg">
<path d="M6.37812 0.622266L6.125 1.125H2.75C2.12773 1.125 1.625 1.62773 1.625 2.25C1.625 2.87227 2.12773 3.375 2.75 3.375H16.25C16.8723 3.375 17.375 2.87227 17.375 2.25C17.375 1.62773 16.8723 1.125 16.25 1.125H12.875L12.6219 0.622266C12.432 0.239063 12.0418 0 11.6164 0H7.38359C6.9582 0 6.56797 0.239063 6.37812 0.622266ZM16.25 4.5H2.75L3.49531 16.418C3.55156 17.3074 4.28984 18 5.1793 18H13.8207C14.7102 18 15.4484 17.3074 15.5047 16.418L16.25 4.5Z" fill="white"/>
</svg>
