<svg width="45" height="45" viewBox="0 0 45 45" fill="none" xmlns="http://www.w3.org/2000/svg">
<path d="M1.5 4.375C1.5 2.71814 2.84315 1.375 4.5 1.375H40.5C42.1569 1.375 43.5 2.71815 43.5 4.375V40.375C43.5 42.0319 42.1569 43.375 40.5 43.375H4.5C2.84315 43.375 1.5 42.0319 1.5 40.375V4.375Z" fill="#03A9F4"/>
<path d="M1.5 4.375C1.5 2.71814 2.84315 1.375 4.5 1.375H40.5C42.1569 1.375 43.5 2.71815 43.5 4.375V40.375C43.5 42.0319 42.1569 43.375 40.5 43.375H4.5C2.84315 43.375 1.5 42.0319 1.5 40.375V4.375Z" stroke="#03A9F4" stroke-width="2"/>
<path d="M29.5896 17.0363C28.984 17.3856 28.3299 17.628 27.6271 17.7633C27.0215 17.1226 26.2694 16.8022 25.3708 16.8022C24.5306 16.8022 23.8083 17.1033 23.2042 17.7053C22.5986 18.3073 22.2958 19.026 22.2958 19.8614C22.2958 20.0934 22.325 20.326 22.3833 20.5594C21.1333 20.5014 19.9562 20.1907 18.8521 19.6274C17.7493 19.064 16.8167 18.3066 16.0542 17.3553C15.7611 17.822 15.6146 18.337 15.6146 18.9004C15.6146 19.9871 16.0736 20.8314 16.9917 21.4334C16.5042 21.4334 16.0451 21.3071 15.6146 21.0544V21.1124C15.6146 21.8318 15.8444 22.4725 16.3042 23.0345C16.7625 23.5978 17.3535 23.9575 18.0771 24.1136C17.8035 24.1716 17.5299 24.2006 17.2562 24.2006C17.0604 24.2006 16.8653 24.1812 16.6708 24.1426C16.8847 24.7639 17.2507 25.2734 17.7687 25.6711C18.2868 26.0688 18.8778 26.2676 19.5417 26.2676C18.4278 27.1417 17.1583 27.5787 15.7333 27.5787C15.4986 27.5787 15.2542 27.569 15 27.5497C16.4458 28.4624 18.0181 28.9188 19.7167 28.9188C21.0833 28.9188 22.3333 28.6564 23.4667 28.1317C24.6 27.6084 25.5229 26.9242 26.2354 26.0791C26.9479 25.2341 27.5 24.3021 27.8917 23.283C28.2819 22.264 28.4771 21.2394 28.4771 20.2094C28.4771 20.074 28.4771 19.9484 28.4771 19.8324C29.0826 19.385 29.5903 18.8507 30 18.2293C29.4333 18.482 28.8472 18.647 28.2417 18.7243C28.9056 18.317 29.3549 17.7543 29.5896 17.0363Z" fill="white"/>
</svg>
