<svg width="150" height="150" viewBox="0 0 150 150" fill="none" xmlns="http://www.w3.org/2000/svg">
<path d="M32.0122 0C53.4421 0 74.872 0 96.9512 0C95.1402 3.87003 93.3293 7.74005 91.4634 11.7274C87.8044 22.0618 88.7849 33.3783 93.2927 43.301C100.161 55.3867 109.495 63.1864 122.95 67.4605C132.049 69.693 141.064 68.0569 150 65.8536C150 89.9669 150 114.08 150 138.924C143.598 141.63 143.598 141.63 140.854 141.63C140.854 142.226 140.854 142.821 140.854 143.435C140.321 143.533 139.788 143.632 139.239 143.734C134.931 144.556 130.69 145.484 126.448 146.592C114.436 149.546 102.825 150.038 90.5093 149.985C87.8444 149.975 85.1802 149.985 82.5154 149.996C80.8022 149.995 79.0891 149.992 77.3759 149.989C76.5888 149.993 75.8018 149.996 74.9909 150C70.4065 149.965 66.5898 149.382 62.1951 147.945C60.9522 147.633 59.7069 147.331 58.458 147.043C57.4984 146.821 57.4984 146.821 56.5195 146.595C55.8647 146.445 55.2098 146.295 54.5351 146.141C53.8548 145.984 53.1746 145.827 52.4738 145.666C47.7941 144.591 43.1092 143.543 38.4146 142.532C38.4146 141.937 38.4146 141.342 38.4146 140.728C37.2073 140.728 36 140.728 34.7561 140.728C34.7561 140.133 34.7561 139.537 34.7561 138.924C33.9579 138.693 33.1597 138.461 32.3373 138.223C29.2184 137.102 26.8197 135.72 24.0663 133.906C21.4773 132.207 19.4178 130.874 16.4634 129.903C14.9116 128.427 13.3917 126.918 11.8902 125.392C10.9594 124.556 10.0207 123.728 9.07489 122.908C8.59856 122.491 8.12224 122.074 7.63148 121.645C6.64987 120.789 5.66366 119.939 4.67321 119.094C2.03341 116.767 0.644811 115.287 0 111.861C0.597911 112.038 1.19582 112.215 1.81185 112.398C37.3085 123.339 37.3085 123.339 73.1707 117.274C74.6921 115.002 74.6921 115.002 75 112.763C72.2319 109.091 69.271 106.356 65.625 103.516C45.9349 87.8969 32.6385 62.9643 29.476 38.2914C29.0518 33.7833 28.9655 29.2767 28.9253 24.7515C28.9062 23.3929 28.9062 23.3929 28.8867 22.0069C28.9362 14.1498 30.3816 8.04143 32.0122 0Z" fill="url(#paint0_linear_408_2193)"/>
<defs>
<linearGradient id="paint0_linear_408_2193" x1="75" y1="0" x2="75" y2="150" gradientUnits="userSpaceOnUse">
<stop offset="0.51" stop-color="#132AF3"/>
<stop offset="1" stop-color="#0B188D" stop-opacity="0.68"/>
</linearGradient>
</defs>
</svg>
