<svg width="198" height="233" viewBox="0 0 198 233" fill="none" xmlns="http://www.w3.org/2000/svg">
<path d="M-47 0.594238C32.8935 0.594238 112.787 0.594238 195.101 0.594238C191.019 5.3992 186.741 9.71741 182.187 13.8792C179.861 16.0123 177.594 18.2086 175.356 20.4666C172.503 23.3423 169.582 26.0907 166.616 28.8029C164.331 30.9023 162.104 33.0673 159.902 35.2867C157.05 38.1623 154.128 40.9108 151.163 43.623C148.559 46.0152 146.037 48.5054 143.529 51.0345C141.317 53.2534 139.054 55.3787 136.758 57.4747C134.009 59.9862 131.338 62.5782 128.71 65.2637C125.761 68.2761 122.745 71.1504 119.66 73.9666C117.009 76.3959 114.441 78.925 111.886 81.4921C109.666 83.7206 107.409 85.8833 105.123 88.0175C103.066 89.9468 101.024 91.8983 98.9835 93.8513C98.5852 94.2324 98.187 94.6135 97.7766 95.0061C95.0923 97.5763 92.4132 100.154 89.7365 102.735C87.6593 104.733 85.577 106.723 83.4944 108.713C79.8628 112.184 76.2381 115.665 72.6199 119.155C68.6053 123.027 64.5813 126.886 60.5518 130.737C57.3183 133.828 54.0926 136.93 50.8708 140.038C46.8541 143.912 42.8281 147.773 38.7964 151.626C36.6174 153.709 34.4411 155.795 32.2696 157.889C29.6997 160.367 27.1222 162.834 24.543 165.299C20.9113 168.77 17.2866 172.25 13.6685 175.741C9.65387 179.613 5.62984 183.472 1.60033 187.323C-1.63312 190.414 -4.85883 193.516 -8.08061 196.624C-12.0973 200.498 -16.1233 204.359 -20.155 208.212C-22.3341 210.294 -24.5104 212.381 -26.6818 214.475C-29.6448 217.332 -32.6168 220.176 -35.5927 223.015C-37.3738 224.715 -39.1512 226.419 -40.9121 228.148C-41.4692 228.693 -42.0262 229.238 -42.6001 229.8C-43.3228 230.514 -43.3228 230.514 -44.06 231.242C-45.283 232.326 -45.283 232.326 -47 233C-47 156.306 -47 79.6122 -47 0.594238Z" fill="url(#paint0_linear_366_2071)"/>
<path d="M185.404 0.299408C186.539 0.323088 187.674 0.344599 188.808 0.363877C191.573 0.415558 194.337 0.496774 197.102 0.594125C193.03 5.40015 188.737 9.72108 184.187 13.8791C181.862 16.0122 179.594 18.2085 177.356 20.4665C174.503 23.3422 171.582 26.0906 168.616 28.8028C166.331 30.9022 164.104 33.0672 161.902 35.2866C159.05 38.1622 156.129 40.9107 153.163 43.6229C150.559 46.0151 148.037 48.5052 145.529 51.0344C143.317 53.2533 141.054 55.3786 138.758 57.4746C136.009 59.9861 133.338 62.5781 130.71 65.2636C127.761 68.276 124.745 71.1503 121.66 73.9665C119.009 76.3958 116.441 78.9249 113.886 81.492C111.666 83.7205 109.409 85.8831 107.123 88.0173C105.066 89.9467 103.024 91.8982 100.984 93.8512C100.585 94.2323 100.187 94.6134 99.7767 95.006C97.0924 97.5762 94.4133 100.154 91.7366 102.735C89.6594 104.733 87.5771 106.723 85.4945 108.713C81.8628 112.184 78.2381 115.665 74.6199 119.155C70.6054 123.027 66.5813 126.886 62.5518 130.737C59.3184 133.828 56.0927 136.93 52.8709 140.038C48.8542 143.912 44.8282 147.773 40.7965 151.626C38.6174 153.709 36.4411 155.795 34.2697 157.889C31.6997 160.367 29.1223 162.834 26.5431 165.299C22.9114 168.77 19.2867 172.25 15.6685 175.741C11.6539 179.613 7.62992 183.472 3.6004 187.323C0.366951 190.414 -2.85876 193.516 -6.08054 196.623C-10.0972 200.498 -14.1232 204.359 -18.155 208.211C-20.334 210.294 -22.5103 212.381 -24.6817 214.475C-27.6447 217.332 -30.6167 220.176 -33.5926 223.014C-35.3737 224.714 -37.1511 226.419 -38.9121 228.148C-39.4691 228.693 -40.0261 229.238 -40.6 229.8C-41.3227 230.514 -41.3227 230.514 -42.06 231.242C-43.2829 232.326 -43.2829 232.326 -44.9999 233C-46.3883 211.445 -46.3883 211.445 -43.417 206.965C-41.7946 205.172 -39.9755 203.855 -38.0044 202.654C-36.5826 201.758 -35.42 200.59 -34.1969 199.36C-33.7491 198.943 -33.3013 198.526 -32.8399 198.097C-30.7876 196.178 -28.754 194.233 -26.7207 192.287C-26.1263 191.718 -26.1263 191.718 -25.52 191.138C-22.2783 188.034 -19.0425 184.921 -15.8104 181.803C-11.7958 177.931 -7.77177 174.072 -3.74226 170.221C-0.508804 167.13 2.7169 164.028 5.93868 160.92C9.95327 157.048 13.9773 153.189 18.0068 149.338C21.2403 146.247 24.4657 143.145 27.6878 140.038C28.737 139.027 29.7863 138.017 30.8356 137.006C31.355 136.506 31.8744 136.006 32.4096 135.491C43.4272 124.881 43.4272 124.881 45.0123 123.354C46.0246 122.38 47.0367 121.404 48.0484 120.428C51.5727 117.031 55.1066 113.647 58.6432 110.267C61.8767 107.176 65.1024 104.074 68.3242 100.966C72.2589 97.1709 76.2034 93.3899 80.1546 89.6182C83.0205 86.8791 85.869 84.116 88.7139 81.3467C91.6506 78.4886 94.6114 75.6771 97.621 72.9262C100.672 70.1368 103.61 67.2214 106.527 64.2411C109.148 61.5771 111.846 59.0533 114.581 56.5563C116.858 54.4698 119.075 52.3162 121.266 50.1067C123.793 47.559 126.365 45.0997 128.993 42.6966C131.993 39.9523 134.913 37.1188 137.803 34.2153C140.023 31.9867 142.28 29.824 144.567 27.6897C146.624 25.7603 148.665 23.8089 150.706 21.8559C151.102 21.4767 151.498 21.0976 151.907 20.707C155.685 17.0888 159.458 13.4627 163.219 9.81984C163.753 9.30403 164.286 8.78822 164.836 8.25678C165.537 7.57685 165.537 7.57685 166.253 6.88319C167.074 6.10426 167.074 6.10426 167.912 5.30961C168.36 4.70417 168.36 4.70417 168.817 4.08649C173.284 -1.23496 179.528 0.086284 185.404 0.299408Z" fill="#2B4EFF"/>
<defs>
<linearGradient id="paint0_linear_366_2071" x1="74.0507" y1="0.594238" x2="74.0507" y2="233" gradientUnits="userSpaceOnUse">
<stop stop-color="#2B4EFF"/>
<stop offset="0.54" stop-color="#0E1133"/>
</linearGradient>
</defs>
</svg>
