<svg width="33" height="32" viewBox="0 0 33 32" fill="none" xmlns="http://www.w3.org/2000/svg">
<g clip-path="url(#clip0_351_762)">
<path d="M16.808 6C10.1414 6 4.44802 10.1467 2.14136 16C4.44802 21.8533 10.1414 26 16.808 26C23.4747 26 29.168 21.8533 31.4747 16C29.168 10.1467 23.4747 6 16.808 6ZM16.808 22.6667C13.128 22.6667 10.1414 19.68 10.1414 16C10.1414 12.32 13.128 9.33333 16.808 9.33333C20.488 9.33333 23.4747 12.32 23.4747 16C23.4747 19.68 20.488 22.6667 16.808 22.6667ZM16.808 12C14.5947 12 12.808 13.7867 12.808 16C12.808 18.2133 14.5947 20 16.808 20C19.0214 20 20.808 18.2133 20.808 16C20.808 13.7867 19.0214 12 16.808 12Z" fill="white"/>
</g>
<defs>
<clipPath id="clip0_351_762">
<rect width="32" height="32" fill="white" transform="translate(0.808105)"/>
</clipPath>
</defs>
</svg>
